<svg width="170" height="130" viewBox="0 0 170 130" fill="none" xmlns="http://www.w3.org/2000/svg">
<g clip-path="url(#clip0_20_2)">
<rect width="170" height="130" fill="white"/>
<rect width="170" height="130" fill="#4B330F"/>
<path d="M60.5555 15.4411C57.0556 18.9411 60.5555 30.9026 60.5555 30.9026H65.5555V21.998H85.5555V30.9026H91.0555C91.0555 30.9026 94.0555 18.4411 91.0555 15.4411C88.0556 12.4411 64.0555 11.9411 60.5555 15.4411Z" fill="#3E8F22"/>
<mask id="mask0_20_2" style="mask-type:alpha" maskUnits="userSpaceOnUse" x="14" y="33" width="123" height="86">
<rect x="14" y="33" width="123" height="86" rx="7" fill="#8C5606"/>
</mask>
<g mask="url(#mask0_20_2)">
<rect x="14" y="33" width="123" height="86" rx="7" fill="#3E8F22"/>
</g>
<path d="M58.5555 17.4411C55.0556 20.9411 58.5555 32.9026 58.5555 32.9026H63.5555V23.998H83.5555V32.9026H89.0555C89.0555 32.9026 92.0555 20.4411 89.0555 17.4411C86.0556 14.4411 62.0555 13.9411 58.5555 17.4411Z" fill="#FFA800"/>
<mask id="mask1_20_2" style="mask-type:alpha" maskUnits="userSpaceOnUse" x="12" y="35" width="123" height="86">
<rect x="12" y="35" width="123" height="86" rx="7" fill="#8C5606"/>
</mask>
<g mask="url(#mask1_20_2)">
<rect x="12" y="35" width="123" height="86" rx="7" fill="#FFA800"/>
</g>
<path d="M56.5555 19.4411C53.0556 22.9411 56.5555 34.9026 56.5555 34.9026H61.5555V25.998H81.5555V34.9026H87.0555C87.0555 34.9026 90.0555 22.4411 87.0555 19.4411C84.0556 16.4411 60.0555 15.9411 56.5555 19.4411Z" fill="#67AEB3"/>
<mask id="mask2_20_2" style="mask-type:alpha" maskUnits="userSpaceOnUse" x="10" y="37" width="123" height="86">
<rect x="10" y="37" width="123" height="86" rx="7" fill="#8C5606"/>
</mask>
<g mask="url(#mask2_20_2)">
<rect x="10" y="37" width="123" height="86" rx="7" fill="#67AEB3"/>
</g>
<path d="M54.5555 21.4411C51.0556 24.9411 54.5555 36.9026 54.5555 36.9026H59.5555V27.998H79.5555V36.9026H85.0555C85.0555 36.9026 88.0555 24.4411 85.0555 21.4411C82.0556 18.4411 58.0555 17.9411 54.5555 21.4411Z" fill="white"/>
<mask id="mask3_20_2" style="mask-type:alpha" maskUnits="userSpaceOnUse" x="8" y="39" width="123" height="86">
<rect x="8" y="39" width="123" height="86" rx="7" fill="#8C5606"/>
</mask>
<g mask="url(#mask3_20_2)">
<rect x="8" y="39" width="123" height="86" rx="7" fill="white"/>
<path d="M17.175 70.2975C15.0867 70.2975 13.5933 69.8483 12.695 68.95C11.7967 68.04 11.3067 66.5467 11.225 64.47C11.2133 63.9217 11.2017 63.3908 11.19 62.8775C11.19 62.3525 11.1958 61.8275 11.2075 61.3025C11.2308 60.7775 11.2658 60.2408 11.3125 59.6925H14.8825C14.8358 60.6258 14.8067 61.5592 14.795 62.4925C14.795 63.4258 14.8242 64.3067 14.8825 65.135C14.9292 65.8233 15.1333 66.3367 15.495 66.675C15.8567 67.0017 16.4108 67.165 17.1575 67.165C17.8925 67.165 18.4233 67.0017 18.75 66.675C19.0767 66.3367 19.275 65.8233 19.345 65.135C19.38 64.61 19.4033 64.12 19.415 63.665C19.4267 63.21 19.4267 62.7492 19.415 62.2825C19.4033 61.8158 19.38 61.3025 19.345 60.7425C19.2983 60.0542 19.1583 59.465 18.925 58.975C18.6917 58.485 18.2658 58.1583 17.6475 57.995L15.3025 57.4C14.2525 57.1317 13.43 56.7408 12.835 56.2275C12.24 55.7025 11.8142 55.0375 11.5575 54.2325C11.3008 53.4275 11.155 52.465 11.12 51.345C11.1083 50.715 11.1025 50.0733 11.1025 49.42C11.1142 48.7667 11.1258 48.1192 11.1375 47.4775C11.1842 46.1008 11.4058 44.9925 11.8025 44.1525C12.2108 43.3008 12.8467 42.6825 13.71 42.2975C14.585 41.9008 15.7342 41.7025 17.1575 41.7025C19.1758 41.7025 20.6342 42.1517 21.5325 43.05C22.4425 43.9483 22.9383 45.43 23.02 47.495C23.0433 48.0667 23.0492 48.7725 23.0375 49.6125C23.0258 50.4408 23.0025 51.2692 22.9675 52.0975H19.3275C19.3625 51.2225 19.38 50.3475 19.38 49.4725C19.3917 48.5858 19.38 47.705 19.345 46.83C19.3333 46.1533 19.1408 45.6517 18.7675 45.325C18.3942 44.9867 17.8517 44.8175 17.14 44.8175C16.3933 44.8175 15.8508 44.9867 15.5125 45.325C15.1742 45.6517 14.9758 46.1533 14.9175 46.83C14.8592 47.5767 14.83 48.3292 14.83 49.0875C14.8417 49.8458 14.8708 50.5983 14.9175 51.345C14.9642 52.0917 15.11 52.6925 15.355 53.1475C15.6 53.6025 16.0433 53.9117 16.685 54.075L18.8025 54.5825C19.9108 54.8392 20.7742 55.2417 21.3925 55.79C22.0108 56.3267 22.4483 57.0092 22.705 57.8375C22.9617 58.6542 23.1075 59.6225 23.1425 60.7425C23.1658 61.2325 23.1775 61.6758 23.1775 62.0725C23.1775 62.4692 23.1717 62.86 23.16 63.245C23.1483 63.6183 23.1367 64.0267 23.125 64.47C23.0433 66.5467 22.5475 68.04 21.6375 68.95C20.7392 69.8483 19.2517 70.2975 17.175 70.2975ZM32.3029 70.2975C30.1796 70.2975 28.6571 69.8542 27.7354 68.9675C26.8254 68.0692 26.3588 66.5817 26.3354 64.505C26.2888 60.7717 26.2654 57.0208 26.2654 53.2525C26.2654 49.4725 26.2888 45.7217 26.3354 42H30.1154C30.0804 44.485 30.0571 47.04 30.0454 49.665C30.0338 52.2783 30.0338 54.8975 30.0454 57.5225C30.0571 60.1358 30.0746 62.685 30.0979 65.17C30.0979 65.835 30.2846 66.3367 30.6579 66.675C31.0313 67.0017 31.5796 67.165 32.3029 67.165C33.0379 67.165 33.5804 67.0017 33.9304 66.675C34.2921 66.3367 34.4729 65.835 34.4729 65.17C34.4963 62.685 34.5138 60.1358 34.5254 57.5225C34.5371 54.8975 34.5371 52.2783 34.5254 49.665C34.5254 47.04 34.5079 44.485 34.4729 42H38.2529C38.3113 45.7217 38.3404 49.4725 38.3404 53.2525C38.3404 57.0208 38.3113 60.7717 38.2529 64.505C38.2296 66.5817 37.7571 68.0692 36.8354 68.9675C35.9254 69.8542 34.4146 70.2975 32.3029 70.2975ZM41.6977 45.3775V42H46.1602V45.3775H41.6977ZM42.0302 70V49H45.8102V70H42.0302ZM52.4112 70V45.36H48.3862V42H60.2337V45.36H56.2087V70H52.4112ZM68.2258 70.2975C66.1024 70.2975 64.5858 69.8483 63.6758 68.95C62.7774 68.0517 62.3108 66.5642 62.2758 64.4875C62.2524 63.1808 62.2349 61.81 62.2233 60.375C62.2116 58.94 62.2058 57.4817 62.2058 56C62.2058 54.5183 62.2116 53.06 62.2233 51.625C62.2349 50.1783 62.2524 48.7958 62.2758 47.4775C62.2991 45.6575 62.7774 44.2458 63.7108 43.2425C64.6441 42.2275 66.1433 41.72 68.2083 41.72C70.2616 41.72 71.7491 42.1692 72.6708 43.0675C73.5924 43.9542 74.0883 45.4358 74.1583 47.5125C74.1699 47.9208 74.1758 48.4108 74.1758 48.9825C74.1758 49.5425 74.1699 50.1025 74.1583 50.6625C74.1466 51.2108 74.1349 51.695 74.1233 52.115H70.3433C70.3549 51.6017 70.3608 51.0358 70.3608 50.4175C70.3724 49.7992 70.3783 49.1808 70.3783 48.5625C70.3783 47.9325 70.3724 47.3608 70.3608 46.8475C70.3491 46.1592 70.1624 45.6517 69.8008 45.325C69.4508 44.9983 68.9199 44.835 68.2083 44.835C67.4966 44.835 66.9658 44.9983 66.6158 45.325C66.2658 45.6517 66.0791 46.1592 66.0558 46.8475C66.0091 48.3292 65.9741 49.84 65.9508 51.38C65.9391 52.9083 65.9333 54.4483 65.9333 56C65.9333 57.5517 65.9391 59.0975 65.9508 60.6375C65.9741 62.1775 66.0091 63.6825 66.0558 65.1525C66.0791 65.8408 66.2658 66.3542 66.6158 66.6925C66.9774 67.0192 67.5141 67.1825 68.2258 67.1825C68.9841 67.1825 69.5499 67.0192 69.9233 66.6925C70.2966 66.3542 70.4891 65.8408 70.5008 65.1525C70.5124 64.6275 70.5183 64.0442 70.5183 63.4025C70.5299 62.7492 70.5299 62.1017 70.5183 61.46C70.5066 60.8183 70.4949 60.235 70.4833 59.71H74.2808C74.3041 60.48 74.3158 61.2792 74.3158 62.1075C74.3274 62.9242 74.3216 63.7175 74.2983 64.4875C74.2283 66.5642 73.7208 68.0517 72.7758 68.95C71.8424 69.8483 70.3258 70.2975 68.2258 70.2975ZM76.6088 70L80.0388 42H86.3388L89.7688 70H85.9013L85.2363 63.0175H81.1413L80.4938 70H76.6088ZM81.5088 59.6575H84.8863L84.2913 53.4975L83.6788 45.36H82.6988L82.1038 53.4975L81.5088 59.6575ZM98.2109 70.2975C96.1226 70.2975 94.6293 69.8483 93.7309 68.95C92.8326 68.04 92.3426 66.5467 92.2609 64.47C92.2493 63.9217 92.2376 63.3908 92.2259 62.8775C92.2259 62.3525 92.2318 61.8275 92.2434 61.3025C92.2668 60.7775 92.3018 60.2408 92.3484 59.6925H95.9184C95.8718 60.6258 95.8426 61.5592 95.8309 62.4925C95.8309 63.4258 95.8601 64.3067 95.9184 65.135C95.9651 65.8233 96.1693 66.3367 96.5309 66.675C96.8926 67.0017 97.4468 67.165 98.1934 67.165C98.9284 67.165 99.4593 67.0017 99.7859 66.675C100.113 66.3367 100.311 65.8233 100.381 65.135C100.416 64.61 100.439 64.12 100.451 63.665C100.463 63.21 100.463 62.7492 100.451 62.2825C100.439 61.8158 100.416 61.3025 100.381 60.7425C100.334 60.0542 100.194 59.465 99.9609 58.975C99.7276 58.485 99.3018 58.1583 98.6834 57.995L96.3384 57.4C95.2884 57.1317 94.4659 56.7408 93.8709 56.2275C93.2759 55.7025 92.8501 55.0375 92.5934 54.2325C92.3368 53.4275 92.1909 52.465 92.1559 51.345C92.1443 50.715 92.1384 50.0733 92.1384 49.42C92.1501 48.7667 92.1618 48.1192 92.1734 47.4775C92.2201 46.1008 92.4418 44.9925 92.8384 44.1525C93.2468 43.3008 93.8826 42.6825 94.7459 42.2975C95.6209 41.9008 96.7701 41.7025 98.1934 41.7025C100.212 41.7025 101.67 42.1517 102.568 43.05C103.478 43.9483 103.974 45.43 104.056 47.495C104.079 48.0667 104.085 48.7725 104.073 49.6125C104.062 50.4408 104.038 51.2692 104.003 52.0975H100.363C100.398 51.2225 100.416 50.3475 100.416 49.4725C100.428 48.5858 100.416 47.705 100.381 46.83C100.369 46.1533 100.177 45.6517 99.8034 45.325C99.4301 44.9867 98.8876 44.8175 98.1759 44.8175C97.4293 44.8175 96.8868 44.9867 96.5484 45.325C96.2101 45.6517 96.0118 46.1533 95.9534 46.83C95.8951 47.5767 95.8659 48.3292 95.8659 49.0875C95.8776 49.8458 95.9068 50.5983 95.9534 51.345C96.0001 52.0917 96.1459 52.6925 96.3909 53.1475C96.6359 53.6025 97.0793 53.9117 97.7209 54.075L99.8384 54.5825C100.947 54.8392 101.81 55.2417 102.428 55.79C103.047 56.3267 103.484 57.0092 103.741 57.8375C103.998 58.6542 104.143 59.6225 104.178 60.7425C104.202 61.2325 104.213 61.6758 104.213 62.0725C104.213 62.4692 104.208 62.86 104.196 63.245C104.184 63.6183 104.173 64.0267 104.161 64.47C104.079 66.5467 103.583 68.04 102.673 68.95C101.775 69.8483 100.288 70.2975 98.2109 70.2975ZM107.616 70V42H117.609V45.36H111.396V54.145H117.259V57.505H111.396V66.64H117.609V70H107.616Z" fill="#4B330F"/>
<path d="M27.325 119V79H36.375L39.225 94.75L40.35 114.125H41.475L42.55 94.75L45.45 79H54.5V119H49.075V107.025L50.1 83.8H48.85L46.475 107.35L44.025 118.925H37.775L35.375 107.35L32.95 83.8H31.775L32.725 107.025V119H27.325ZM59.1121 119V79H73.3871V83.8H64.5121V96.35H72.8871V101.15H64.5121V114.2H73.3871V119H59.1121ZM76.8367 119V79H85.1117C88.1284 79 90.3117 79.6583 91.6617 80.975C93.0117 82.275 93.7117 84.4333 93.7617 87.45C93.8117 90.2 93.8451 92.8083 93.8617 95.275C93.8784 97.7417 93.8784 100.217 93.8617 102.7C93.8451 105.167 93.8117 107.775 93.7617 110.525C93.7117 113.542 93.0117 115.708 91.6617 117.025C90.3117 118.342 88.1201 119 85.0867 119H76.8367ZM82.2367 114.2H85.0867C86.1867 114.2 87.0034 113.95 87.5367 113.45C88.0701 112.933 88.3451 112.158 88.3617 111.125C88.4117 109.092 88.4451 107.067 88.4617 105.05C88.4784 103.017 88.4867 100.992 88.4867 98.975C88.4867 96.9583 88.4784 94.9417 88.4617 92.925C88.4451 90.8917 88.4117 88.8583 88.3617 86.825C88.3451 85.8083 88.0701 85.05 87.5367 84.55C87.0034 84.05 86.1951 83.8 85.1117 83.8H82.2367V114.2ZM97.8234 83.825V79H104.198V83.825H97.8234ZM98.2984 119V89H103.698V119H98.2984ZM106.904 119L111.804 79H120.804L125.704 119H120.179L119.229 109.025H113.379L112.454 119H106.904ZM113.904 104.225H118.729L117.879 95.425L117.004 83.8H115.604L114.754 95.425L113.904 104.225Z" fill="#4B330F"/>
</g>
</g>
<defs>
<clipPath id="clip0_20_2">
<rect width="170" height="130" fill="white"/>
</clipPath>
</defs>
</svg>
