<svg width="190" height="165" viewBox="0 0 190 165" fill="none" xmlns="http://www.w3.org/2000/svg">
<g clip-path="url(#clip0_20_76)">
<path d="M71.9151 3.79981C66.5086 9.24792 71.9151 27.8672 71.9151 27.8672H79.6387V14.0063H110.533V27.8672H119.029C119.029 27.8672 123.663 8.46963 119.029 3.79981C114.395 -0.869996 77.3216 -1.64829 71.9151 3.79981Z" fill="#FFA800"/>
<mask id="mask0_20_76" style="mask-type:alpha" maskUnits="userSpaceOnUse" x="0" y="31" width="190" height="134">
<rect y="31.1321" width="190" height="133.868" rx="7" fill="#8C5606"/>
</mask>
<g mask="url(#mask0_20_76)">
<rect y="31.1321" width="190" height="133.868" rx="7" fill="#FFA800"/>
<path d="M7.77871 61.7226H14.7287L13.5287 48.3226L7.77871 46.8226V31.9726C7.77871 31.4392 7.97871 30.9226 8.37871 30.4226C8.81204 29.8892 9.27871 29.6226 9.77871 29.6226H18.1287V32.0726L11.0287 33.0226L11.7787 44.0726L18.1287 45.7226V62.1226C18.1287 62.8226 17.7787 63.5059 17.0787 64.1726C16.3787 64.8059 15.662 65.1226 14.9287 65.1226H7.77871V61.7226ZM22.7529 30.7726H25.7529V61.6726L30.1029 61.9726L29.0529 29.6226H33.2529V63.1226C33.2529 63.5892 33.0029 64.0392 32.5029 64.4726C32.0363 64.9059 31.5696 65.1226 31.1029 65.1226H22.7529V30.7726ZM38.3549 29.6226H41.5049L42.5549 64.1226H38.3549V29.6226ZM49.7162 34.3726L46.1162 33.1726L46.7662 29.6226L57.1162 30.3226L57.3662 33.4726H52.9662V65.1226H48.7162L49.7162 34.3726ZM66.2033 65.1226C64.5033 65.1226 63.2367 64.8392 62.4033 64.2726C61.57 63.6726 61.1533 62.9226 61.1533 62.0226V32.4226C61.1533 31.6226 61.5033 30.9559 62.2033 30.4226C62.9033 29.8892 63.8867 29.6226 65.1533 29.6226H73.3533V32.4226L72.5533 38.6726H69.2533L68.7533 33.0226C68.72 32.7226 68.52 32.5726 68.1533 32.5726H66.0533C65.32 32.5726 64.8367 32.8559 64.6033 33.4226C64.4033 33.9559 64.32 34.7226 64.3533 35.7226L65.4033 60.6726C65.4033 60.8726 65.5033 60.9726 65.7033 60.9726H68.6533C69.02 60.9726 69.22 60.8726 69.2533 60.6726L70.2533 56.7726H73.3533V65.1226H66.2033ZM79.1236 29.6226H88.2736V65.1226H85.3736L84.0736 51.2226H81.5236L79.2236 65.1226H76.8736L79.1236 29.6226ZM84.8236 48.8726C85.0236 48.8726 85.1236 48.7726 85.1236 48.5726V31.5226C85.1236 31.3226 85.0236 31.2226 84.8236 31.2226H82.6736C82.4736 31.2226 82.3736 31.3226 82.3736 31.5226V48.6226C82.3736 48.7892 82.4736 48.8726 82.6736 48.8726H84.8236ZM92.7803 56.5726H95.6803V60.9226L99.1803 61.7226L99.9803 48.4226L93.2303 46.9226V30.8226L95.2303 29.6226H103.08L102.83 36.6726H100.98L99.9803 32.7726L96.9803 33.1226L96.2303 44.2226L103.48 45.5226L102.78 62.1226C102.78 62.7892 102.347 63.4559 101.48 64.1226C100.614 64.7892 99.8136 65.1226 99.0803 65.1226H93.2303L92.7803 56.5726ZM108.152 29.6226H118.852V32.7226L112.602 32.4226V43.7726L118.852 44.9226V47.3226L111.752 47.0226V61.3726L118.852 60.9726V65.1226H108.152V29.6226Z" fill="#FFA800"/>
<path d="M8.95371 134.021V94.021H20.4412L22.8037 113.821L24.2537 129.308H25.4412L26.8787 113.821L29.2537 94.021H40.7412V134.021H39.5912V94.946H30.2412L27.8662 114.571L26.3287 130.233H23.3662L21.8287 114.571L19.4412 94.946H10.0912V134.021H8.95371ZM13.6287 134.021V117.708L12.9162 97.721H16.6537L18.9037 117.596L20.4037 133.008H29.2912L30.7787 117.596L33.0412 97.721H36.7662L36.0537 117.708V134.021H34.9162V118.558L35.6537 98.646H33.9037L31.7662 118.558L30.3912 133.946H19.3037L17.9162 118.558L15.7912 98.646H14.0287L14.7787 118.558V134.021H13.6287ZM11.2412 134.021V115.821L10.9037 95.871H18.4912L20.8662 115.433L22.3287 131.158H27.3537L28.8162 115.433L31.2037 95.871H38.7912L38.4537 115.821V134.021H37.3037V116.896L37.7162 96.796H32.1787L29.7912 116.671L28.3037 132.083H21.3912L19.9037 116.671L17.5037 96.796H11.9787L12.3787 116.896V134.021H11.2412ZM46.3072 134.021V94.021H62.0697V95.0085H47.4447V133.033H62.0697V134.021H46.3072ZM50.8822 130.046V115.271H61.5697V116.271H52.0322V129.058H62.0697V130.046H50.8822ZM48.5947 132.033V96.0085H62.0697V96.996H49.7322V113.283H61.5697V114.283H49.7322V131.046H62.0697V132.033H48.5947ZM50.8822 112.296V97.996H62.0697V98.9835H52.0322V111.296H61.5697V112.296H50.8822ZM66.2291 134.021V94.021H75.3041C77.0958 94.021 78.6666 94.2418 80.0166 94.6835C81.3749 95.1168 82.4416 95.9418 83.2166 97.1585C83.9999 98.3668 84.4166 100.138 84.4666 102.471C84.5166 105.079 84.5499 107.588 84.5666 109.996C84.5833 112.404 84.5833 114.867 84.5666 117.383C84.5583 119.9 84.5249 122.621 84.4666 125.546C84.4166 127.846 84.0166 129.608 83.2666 130.833C82.5166 132.05 81.4749 132.888 80.1416 133.346C78.8166 133.796 77.2541 134.021 75.4541 134.021H66.2291ZM67.3666 133.033H75.4541C76.5374 133.033 77.5458 132.938 78.4791 132.746C79.4208 132.546 80.2458 132.183 80.9541 131.658C81.6708 131.133 82.2333 130.375 82.6416 129.383C83.0583 128.392 83.2833 127.1 83.3166 125.508C83.3666 123.083 83.3999 120.621 83.4166 118.121C83.4333 115.613 83.4333 113.058 83.4166 110.458C83.3999 107.85 83.3666 105.196 83.3166 102.496C83.2749 100.496 82.9249 98.9543 82.2666 97.871C81.6166 96.7877 80.6999 96.0418 79.5166 95.6335C78.3333 95.2168 76.9291 95.0085 75.3041 95.0085H67.3666V133.033ZM68.5166 132.033V96.0085H75.3041C76.7124 96.0085 77.9208 96.1877 78.9291 96.546C79.9458 96.9043 80.7333 97.5502 81.2916 98.4835C81.8499 99.4168 82.1416 100.754 82.1666 102.496C82.2083 104.538 82.2374 106.492 82.2541 108.358C82.2708 110.217 82.2791 112.058 82.2791 113.883C82.2791 115.7 82.2708 117.563 82.2541 119.471C82.2374 121.371 82.2083 123.383 82.1666 125.508C82.1416 127.308 81.8374 128.679 81.2541 129.621C80.6708 130.563 79.8791 131.2 78.8791 131.533C77.8874 131.867 76.7458 132.033 75.4541 132.033H68.5166ZM69.6541 131.046H75.4541C77.2458 131.046 78.6124 130.65 79.5541 129.858C80.4958 129.067 80.9874 127.604 81.0291 125.471C81.0791 122.888 81.1124 120.354 81.1291 117.871C81.1458 115.388 81.1458 112.883 81.1291 110.358C81.1124 107.833 81.0791 105.225 81.0291 102.533C80.9791 100.333 80.4499 98.8627 79.4416 98.121C78.4416 97.371 77.0624 96.996 75.3041 96.996H69.6541V131.046ZM70.8041 130.046V97.996H75.3041C76.1208 97.996 76.8666 98.1002 77.5416 98.3085C78.2249 98.5168 78.7749 98.946 79.1916 99.596C79.6166 100.238 79.8416 101.229 79.8666 102.571C79.9249 105.238 79.9624 107.779 79.9791 110.196C80.0041 112.613 80.0083 115.054 79.9916 117.521C79.9749 119.979 79.9333 122.621 79.8666 125.446C79.8249 127.338 79.4041 128.579 78.6041 129.171C77.8041 129.754 76.7541 130.046 75.4541 130.046H70.8041ZM71.9541 129.058H75.4541C76.0791 129.058 76.6333 128.963 77.1166 128.771C77.5999 128.579 77.9874 128.221 78.2791 127.696C78.5708 127.163 78.7249 126.396 78.7416 125.396C78.7916 122.946 78.8249 120.45 78.8416 117.908C78.8583 115.367 78.8583 112.813 78.8416 110.246C78.8249 107.679 78.7916 105.138 78.7416 102.621C78.7083 101.154 78.3833 100.183 77.7666 99.7085C77.1499 99.2252 76.3291 98.9835 75.3041 98.9835H71.9541V129.058ZM89.4541 95.2085V94.196H95.1791V95.2085H89.4541ZM89.4541 99.246V98.2335H95.1791V99.246H89.4541ZM89.4541 97.2335V96.221H95.1791V97.2335H89.4541ZM94.0416 134.021V104.021H95.1791V134.021H94.0416ZM89.4541 134.021V104.021H90.6041V134.021H89.4541ZM91.7416 134.021V104.021H92.8916V134.021H91.7416ZM98.8439 134.021L103.769 94.021H114.244L119.169 134.021H118.006L113.256 94.9585H104.756L100.006 134.021H98.8439ZM103.456 134.021L104.769 123.071H113.244L114.556 134.021H113.369L112.319 123.996H105.694L104.644 134.021H103.456ZM101.131 134.021L105.494 95.896H112.519L116.881 134.021H115.694L114.344 122.146H103.669L102.319 134.021H101.131ZM103.731 121.221H114.231L113.006 109.746L111.519 96.8335H106.494L104.969 109.746L103.731 121.221ZM105.031 120.283L106.069 109.746L107.281 97.7085H110.731L111.981 109.746L112.981 120.283H105.031ZM106.231 119.358H111.781L110.906 109.746L109.856 98.646H108.156L107.106 109.746L106.231 119.358Z" fill="#FFA800"/>
<path d="M30.2893 108.933V80.1329H32.6653V108.933H30.2893ZM36.4768 108.933V80.1329H40.5448L42.1468 89.2589L44.5948 106.773H45.4048L44.9908 90.3209L44.8288 80.1329H47.1688V108.933H42.9568L41.1568 98.6009L39.1048 82.2929H38.2408L38.6368 98.1509L38.7808 108.933H36.4768ZM50.9964 108.933V80.1329H55.0644L56.6664 89.2589L59.1144 106.773H59.9244L59.5104 90.3209L59.3484 80.1329H61.6884V108.933H57.4764L55.6764 98.6009L53.6244 82.2929H52.7604L53.1564 98.1509L53.3004 108.933H50.9964ZM70.0879 109.185C68.4199 109.185 67.2199 108.825 66.4879 108.105C65.7679 107.373 65.3899 106.173 65.3539 104.505C65.3179 102.789 65.2879 101.109 65.2639 99.4649C65.2519 97.8089 65.2459 96.1649 65.2459 94.5329C65.2459 92.9009 65.2519 91.2629 65.2639 89.6189C65.2879 87.9749 65.3179 86.2889 65.3539 84.5609C65.3899 82.8929 65.7679 81.6989 66.4879 80.9789C67.2199 80.2469 68.4199 79.8809 70.0879 79.8809C71.7679 79.8809 72.9679 80.2469 73.6879 80.9789C74.4199 81.6989 74.7979 82.8929 74.8219 84.5609C74.8579 86.2889 74.8819 87.9809 74.8939 89.6369C74.9179 91.2809 74.9299 92.9189 74.9299 94.5509C74.9299 96.1709 74.9179 97.8089 74.8939 99.4649C74.8819 101.109 74.8579 102.789 74.8219 104.505C74.7979 106.173 74.4199 107.373 73.6879 108.105C72.9679 108.825 71.7679 109.185 70.0879 109.185ZM70.0879 107.133C70.9279 107.133 71.5279 106.965 71.8879 106.629C72.2479 106.281 72.4339 105.693 72.4459 104.865C72.4939 103.101 72.5239 101.355 72.5359 99.6269C72.5599 97.8869 72.5719 96.1649 72.5719 94.4609C72.5719 92.7449 72.5599 91.0349 72.5359 89.3309C72.5119 87.6149 72.4819 85.9049 72.4459 84.2009C72.4339 83.3729 72.2419 82.7849 71.8699 82.4369C71.5099 82.0889 70.9159 81.9149 70.0879 81.9149C69.2719 81.9149 68.6839 82.0889 68.3239 82.4369C67.9639 82.7849 67.7719 83.3729 67.7479 84.2009C67.6999 85.9049 67.6639 87.6149 67.6399 89.3309C67.6159 91.0349 67.6039 92.7449 67.6039 94.4609C67.6159 96.1649 67.6339 97.8869 67.6579 99.6269C67.6819 101.355 67.7119 103.101 67.7479 104.865C67.7719 105.693 67.9639 106.281 68.3239 106.629C68.6839 106.965 69.2719 107.133 70.0879 107.133ZM80.0304 108.933L77.0064 80.1329H79.4904L81.0564 96.1709L81.7944 106.773H82.7664L83.4864 96.1709L85.0524 80.1329H87.5724L84.5124 108.933H80.0304ZM90.3714 108.933V80.1329H98.4894V82.2929H92.7474V93.3629H98.1294V95.5049H92.7474V106.773H98.4894V108.933H90.3714ZM101.235 108.933V80.1329H105.609C107.241 80.1329 108.423 80.4929 109.155 81.2129C109.887 81.9329 110.289 83.1269 110.361 84.7949C110.397 85.8629 110.421 86.8769 110.433 87.8369C110.445 88.7849 110.445 89.7089 110.433 90.6089C110.421 91.4969 110.397 92.3849 110.361 93.2729C110.325 94.4369 110.121 95.3669 109.749 96.0629C109.377 96.7469 108.801 97.2329 108.021 97.5209L110.919 108.933H108.363L105.717 97.9349H103.611V108.933H101.235ZM103.611 95.7749H105.591C106.407 95.7749 106.995 95.5829 107.355 95.1989C107.727 94.8149 107.931 94.2089 107.967 93.3809C108.003 92.4329 108.027 91.4729 108.039 90.5009C108.051 89.5169 108.051 88.5389 108.039 87.5669C108.027 86.5949 108.003 85.6349 107.967 84.6869C107.931 83.8589 107.733 83.2529 107.373 82.8689C107.013 82.4849 106.425 82.2929 105.609 82.2929H103.611V95.7749ZM113.785 108.933V80.1329H121.903V82.2929H116.161V93.3629H121.543V95.5049H116.161V106.773H121.903V108.933H113.785ZM124.649 108.933V80.1329H129.023C130.655 80.1329 131.837 80.4929 132.569 81.2129C133.301 81.9329 133.703 83.1269 133.775 84.7949C133.811 85.8629 133.835 86.8769 133.847 87.8369C133.859 88.7849 133.859 89.7089 133.847 90.6089C133.835 91.4969 133.811 92.3849 133.775 93.2729C133.739 94.4369 133.535 95.3669 133.163 96.0629C132.791 96.7469 132.215 97.2329 131.435 97.5209L134.333 108.933H131.777L129.131 97.9349H127.025V108.933H124.649ZM127.025 95.7749H129.005C129.821 95.7749 130.409 95.5829 130.769 95.1989C131.141 94.8149 131.345 94.2089 131.381 93.3809C131.417 92.4329 131.441 91.4729 131.453 90.5009C131.465 89.5169 131.465 88.5389 131.453 87.5669C131.441 86.5949 131.417 85.6349 131.381 84.6869C131.345 83.8589 131.147 83.2529 130.787 82.8689C130.427 82.4849 129.839 82.2929 129.023 82.2929H127.025V95.7749Z" fill="white"/>
</g>
</g>
<defs>
<clipPath id="clip0_20_76">
<rect width="190" height="165" fill="white"/>
</clipPath>
</defs>
</svg>
