<svg width="340" height="297" viewBox="0 0 340 297" fill="none" xmlns="http://www.w3.org/2000/svg">
<path d="M128.69 6.82786C119.015 16.6175 128.69 50.0744 128.69 50.0744H142.511V25.1677H197.796V50.0744H212.999C212.999 50.0744 221.292 15.219 212.999 6.82786C204.706 -1.56329 138.365 -2.9618 128.69 6.82786Z" fill="#FFA800"/>
<mask id="mask0_1_597" style="mask-type:alpha" maskUnits="userSpaceOnUse" x="0" y="55" width="340" height="242">
<rect y="55.9408" width="340" height="240.546" rx="7" fill="#8C5606"/>
</mask>
<g mask="url(#mask0_1_597)">
<rect y="55.9408" width="340" height="240.546" rx="7" fill="#FFA800"/>
<path d="M15.544 117V78.6H18.712V117H15.544ZM23.794 117V78.6H29.218L31.354 90.768L34.618 114.12H35.698L35.146 92.184L34.93 78.6H38.05V117H32.434L30.034 103.224L27.298 81.48H26.146L26.674 102.624L26.866 117H23.794ZM43.1534 117V78.6H48.5774L50.7134 90.768L53.9774 114.12H55.0574L54.5054 92.184L54.2894 78.6H57.4094V117H51.7934L49.3934 103.224L46.6574 81.48H45.5054L46.0334 102.624L46.2254 117H43.1534ZM68.6088 117.336C66.3848 117.336 64.7848 116.856 63.8088 115.896C62.8488 114.92 62.3448 113.32 62.2968 111.096C62.2488 108.808 62.2088 106.568 62.1768 104.376C62.1608 102.168 62.1528 99.976 62.1528 97.8C62.1528 95.624 62.1608 93.44 62.1768 91.248C62.2088 89.056 62.2488 86.808 62.2968 84.504C62.3448 82.28 62.8488 80.688 63.8088 79.728C64.7848 78.752 66.3848 78.264 68.6088 78.264C70.8488 78.264 72.4488 78.752 73.4088 79.728C74.3848 80.688 74.8888 82.28 74.9208 84.504C74.9688 86.808 75.0008 89.064 75.0168 91.272C75.0488 93.464 75.0648 95.648 75.0648 97.824C75.0648 99.984 75.0488 102.168 75.0168 104.376C75.0008 106.568 74.9688 108.808 74.9208 111.096C74.8888 113.32 74.3848 114.92 73.4088 115.896C72.4488 116.856 70.8488 117.336 68.6088 117.336ZM68.6088 114.6C69.7288 114.6 70.5288 114.376 71.0088 113.928C71.4888 113.464 71.7368 112.68 71.7528 111.576C71.8168 109.224 71.8568 106.896 71.8728 104.592C71.9048 102.272 71.9208 99.976 71.9208 97.704C71.9208 95.416 71.9048 93.136 71.8728 90.864C71.8408 88.576 71.8008 86.296 71.7528 84.024C71.7368 82.92 71.4808 82.136 70.9848 81.672C70.5048 81.208 69.7128 80.976 68.6088 80.976C67.5208 80.976 66.7368 81.208 66.2568 81.672C65.7768 82.136 65.5208 82.92 65.4888 84.024C65.4248 86.296 65.3768 88.576 65.3448 90.864C65.3128 93.136 65.2968 95.416 65.2968 97.704C65.3128 99.976 65.3368 102.272 65.3688 104.592C65.4008 106.896 65.4408 109.224 65.4888 111.576C65.5208 112.68 65.7768 113.464 66.2568 113.928C66.7368 114.376 67.5208 114.6 68.6088 114.6ZM81.8654 117L77.8334 78.6H81.1454L83.2334 99.984L84.2174 114.12H85.5134L86.4734 99.984L88.5614 78.6H91.9214L87.8414 117H81.8654ZM93.3685 117L97.4725 78.6H103.425L107.505 117H104.265L103.257 105.864H97.6165L96.6325 117H93.3685ZM97.9285 102.984H102.945L102.201 94.584L101.121 81.48H99.7765L98.6965 94.608L97.9285 102.984ZM112.449 117V81.48H107.553V78.6H120.513V81.48H115.641V117H112.449ZM123.31 117V78.6H126.478V117H123.31ZM137.656 117.336C135.432 117.336 133.832 116.856 132.856 115.896C131.896 114.92 131.392 113.32 131.344 111.096C131.296 108.808 131.256 106.568 131.224 104.376C131.208 102.168 131.2 99.976 131.2 97.8C131.2 95.624 131.208 93.44 131.224 91.248C131.256 89.056 131.296 86.808 131.344 84.504C131.392 82.28 131.896 80.688 132.856 79.728C133.832 78.752 135.432 78.264 137.656 78.264C139.896 78.264 141.496 78.752 142.456 79.728C143.432 80.688 143.936 82.28 143.968 84.504C144.016 86.808 144.048 89.064 144.064 91.272C144.096 93.464 144.112 95.648 144.112 97.824C144.112 99.984 144.096 102.168 144.064 104.376C144.048 106.568 144.016 108.808 143.968 111.096C143.936 113.32 143.432 114.92 142.456 115.896C141.496 116.856 139.896 117.336 137.656 117.336ZM137.656 114.6C138.776 114.6 139.576 114.376 140.056 113.928C140.536 113.464 140.784 112.68 140.8 111.576C140.864 109.224 140.904 106.896 140.92 104.592C140.952 102.272 140.968 99.976 140.968 97.704C140.968 95.416 140.952 93.136 140.92 90.864C140.888 88.576 140.848 86.296 140.8 84.024C140.784 82.92 140.528 82.136 140.032 81.672C139.552 81.208 138.76 80.976 137.656 80.976C136.568 80.976 135.784 81.208 135.304 81.672C134.824 82.136 134.568 82.92 134.536 84.024C134.472 86.296 134.424 88.576 134.392 90.864C134.36 93.136 134.344 95.416 134.344 97.704C134.36 99.976 134.384 102.272 134.416 104.592C134.448 106.896 134.488 109.224 134.536 111.576C134.568 112.68 134.824 113.464 135.304 113.928C135.784 114.376 136.568 114.6 137.656 114.6ZM148.81 117V78.6H154.234L156.37 90.768L159.634 114.12H160.714L160.162 92.184L159.946 78.6H163.066V117H157.45L155.05 103.224L152.314 81.48H151.162L151.69 102.624L151.882 117H148.81Z" fill="white"/>
</g>
</svg>
