<svg width="190" height="165" viewBox="0 0 190 165" fill="none" xmlns="http://www.w3.org/2000/svg">
<g clip-path="url(#clip0_20_75)">
<path d="M71.9151 3.79981C66.5086 9.24792 71.9151 27.8672 71.9151 27.8672H79.6387V14.0063H110.533V27.8672H119.029C119.029 27.8672 123.663 8.46963 119.029 3.79981C114.395 -0.869996 77.3216 -1.64829 71.9151 3.79981Z" fill="#67AEB3"/>
<mask id="mask0_20_75" style="mask-type:alpha" maskUnits="userSpaceOnUse" x="0" y="31" width="190" height="134">
<rect y="31.1321" width="190" height="133.868" rx="7" fill="#8C5606"/>
</mask>
<g mask="url(#mask0_20_75)">
<rect y="31.1321" width="190" height="133.868" rx="7" fill="#67AEB3"/>
<path d="M7.77896 61.7223H14.729L13.529 48.3223L7.77896 46.8223V31.9723C7.77896 31.439 7.97896 30.9223 8.37896 30.4223C8.81229 29.889 9.27896 29.6223 9.77896 29.6223H18.129V32.0723L11.029 33.0223L11.779 44.0723L18.129 45.7223V62.1223C18.129 62.8223 17.779 63.5056 17.079 64.1723C16.379 64.8056 15.6623 65.1223 14.929 65.1223H7.77896V61.7223ZM22.7532 30.7723H25.7532V61.6723L30.1032 61.9723L29.0532 29.6223H33.2532V63.1223C33.2532 63.589 33.0032 64.039 32.5032 64.4723C32.0365 64.9056 31.5698 65.1223 31.1032 65.1223H22.7532V30.7723ZM38.3551 29.6223H41.5051L42.5551 64.1223H38.3551V29.6223ZM49.7165 34.3723L46.1165 33.1723L46.7665 29.6223L57.1165 30.3223L57.3665 33.4723H52.9665V65.1223H48.7165L49.7165 34.3723ZM66.2036 65.1223C64.5036 65.1223 63.2369 64.839 62.4036 64.2723C61.5702 63.6723 61.1536 62.9223 61.1536 62.0223V32.4223C61.1536 31.6223 61.5036 30.9556 62.2036 30.4223C62.9036 29.889 63.8869 29.6223 65.1536 29.6223H73.3536V32.4223L72.5536 38.6723H69.2536L68.7536 33.0223C68.7202 32.7223 68.5202 32.5723 68.1536 32.5723H66.0536C65.3202 32.5723 64.8369 32.8556 64.6036 33.4223C64.4036 33.9556 64.3202 34.7223 64.3536 35.7223L65.4036 60.6723C65.4036 60.8723 65.5036 60.9723 65.7036 60.9723H68.6536C69.0202 60.9723 69.2202 60.8723 69.2536 60.6723L70.2536 56.7723H73.3536V65.1223H66.2036ZM79.1239 29.6223H88.2739V65.1223H85.3739L84.0739 51.2223H81.5239L79.2239 65.1223H76.8739L79.1239 29.6223ZM84.8239 48.8723C85.0239 48.8723 85.1239 48.7723 85.1239 48.5723V31.5223C85.1239 31.3223 85.0239 31.2223 84.8239 31.2223H82.6739C82.4739 31.2223 82.3739 31.3223 82.3739 31.5223V48.6223C82.3739 48.789 82.4739 48.8723 82.6739 48.8723H84.8239ZM92.7805 56.5723H95.6805V60.9223L99.1805 61.7223L99.9805 48.4223L93.2305 46.9223V30.8223L95.2305 29.6223H103.081L102.831 36.6723H100.981L99.9805 32.7723L96.9805 33.1223L96.2305 44.2223L103.481 45.5223L102.781 62.1223C102.781 62.789 102.347 63.4556 101.481 64.1223C100.614 64.789 99.8139 65.1223 99.0805 65.1223H93.2305L92.7805 56.5723ZM108.152 29.6223H118.852V32.7223L112.602 32.4223V43.7723L118.852 44.9223V47.3223L111.752 47.0223V61.3723L118.852 60.9723V65.1223H108.152V29.6223Z" fill="#67AEB3"/>
<path d="M8.95396 134.021V94.021H20.4415L22.804 113.821L24.254 129.308H25.4415L26.879 113.821L29.254 94.021H40.7415V134.021H39.5915V94.946H30.2415L27.8665 114.571L26.329 130.233H23.3665L21.829 114.571L19.4415 94.946H10.0915V134.021H8.95396ZM13.629 134.021V117.708L12.9165 97.721H16.654L18.904 117.596L20.404 133.008H29.2915L30.779 117.596L33.0415 97.721H36.7665L36.054 117.708V134.021H34.9165V118.558L35.654 98.646H33.904L31.7665 118.558L30.3915 133.946H19.304L17.9165 118.558L15.7915 98.646H14.029L14.779 118.558V134.021H13.629ZM11.2415 134.021V115.821L10.904 95.871H18.4915L20.8665 115.433L22.329 131.158H27.354L28.8165 115.433L31.204 95.871H38.7915L38.454 115.821V134.021H37.304V116.896L37.7165 96.796H32.179L29.7915 116.671L28.304 132.083H21.3915L19.904 116.671L17.504 96.796H11.979L12.379 116.896V134.021H11.2415ZM46.3075 134.021V94.021H62.07V95.0085H47.445V133.033H62.07V134.021H46.3075ZM50.8825 130.046V115.271H61.57V116.271H52.0325V129.058H62.07V130.046H50.8825ZM48.595 132.033V96.0085H62.07V96.996H49.7325V113.283H61.57V114.283H49.7325V131.046H62.07V132.033H48.595ZM50.8825 112.296V97.996H62.07V98.9835H52.0325V111.296H61.57V112.296H50.8825ZM66.2293 134.021V94.021H75.3043C77.096 94.021 78.6668 94.2418 80.0168 94.6835C81.3752 95.1168 82.4418 95.9418 83.2168 97.1585C84.0002 98.3668 84.4168 100.138 84.4668 102.471C84.5168 105.079 84.5502 107.588 84.5668 109.996C84.5835 112.404 84.5835 114.867 84.5668 117.383C84.5585 119.9 84.5252 122.621 84.4668 125.546C84.4168 127.846 84.0168 129.608 83.2668 130.833C82.5168 132.05 81.4752 132.888 80.1418 133.346C78.8168 133.796 77.2543 134.021 75.4543 134.021H66.2293ZM67.3668 133.033H75.4543C76.5377 133.033 77.546 132.938 78.4793 132.746C79.421 132.546 80.246 132.183 80.9543 131.658C81.671 131.133 82.2335 130.375 82.6418 129.383C83.0585 128.392 83.2835 127.1 83.3168 125.508C83.3668 123.083 83.4002 120.621 83.4168 118.121C83.4335 115.613 83.4335 113.058 83.4168 110.458C83.4002 107.85 83.3668 105.196 83.3168 102.496C83.2752 100.496 82.9252 98.9543 82.2668 97.871C81.6168 96.7877 80.7002 96.0418 79.5168 95.6335C78.3335 95.2168 76.9293 95.0085 75.3043 95.0085H67.3668V133.033ZM68.5168 132.033V96.0085H75.3043C76.7127 96.0085 77.921 96.1877 78.9293 96.546C79.946 96.9043 80.7335 97.5502 81.2918 98.4835C81.8502 99.4168 82.1418 100.754 82.1668 102.496C82.2085 104.538 82.2377 106.492 82.2543 108.358C82.271 110.217 82.2793 112.058 82.2793 113.883C82.2793 115.7 82.271 117.563 82.2543 119.471C82.2377 121.371 82.2085 123.383 82.1668 125.508C82.1418 127.308 81.8377 128.679 81.2543 129.621C80.671 130.563 79.8793 131.2 78.8793 131.533C77.8877 131.867 76.746 132.033 75.4543 132.033H68.5168ZM69.6543 131.046H75.4543C77.246 131.046 78.6127 130.65 79.5543 129.858C80.496 129.067 80.9877 127.604 81.0293 125.471C81.0793 122.888 81.1127 120.354 81.1293 117.871C81.146 115.388 81.146 112.883 81.1293 110.358C81.1127 107.833 81.0793 105.225 81.0293 102.533C80.9793 100.333 80.4502 98.8627 79.4418 98.121C78.4418 97.371 77.0627 96.996 75.3043 96.996H69.6543V131.046ZM70.8043 130.046V97.996H75.3043C76.121 97.996 76.8668 98.1002 77.5418 98.3085C78.2252 98.5168 78.7752 98.946 79.1918 99.596C79.6168 100.238 79.8418 101.229 79.8668 102.571C79.9252 105.238 79.9627 107.779 79.9793 110.196C80.0043 112.613 80.0085 115.054 79.9918 117.521C79.9752 119.979 79.9335 122.621 79.8668 125.446C79.8252 127.338 79.4043 128.579 78.6043 129.171C77.8043 129.754 76.7543 130.046 75.4543 130.046H70.8043ZM71.9543 129.058H75.4543C76.0793 129.058 76.6335 128.963 77.1168 128.771C77.6002 128.579 77.9877 128.221 78.2793 127.696C78.571 127.163 78.7252 126.396 78.7418 125.396C78.7918 122.946 78.8252 120.45 78.8418 117.908C78.8585 115.367 78.8585 112.813 78.8418 110.246C78.8252 107.679 78.7918 105.138 78.7418 102.621C78.7085 101.154 78.3835 100.183 77.7668 99.7085C77.1502 99.2252 76.3293 98.9835 75.3043 98.9835H71.9543V129.058ZM89.4543 95.2085V94.196H95.1793V95.2085H89.4543ZM89.4543 99.246V98.2335H95.1793V99.246H89.4543ZM89.4543 97.2335V96.221H95.1793V97.2335H89.4543ZM94.0418 134.021V104.021H95.1793V134.021H94.0418ZM89.4543 134.021V104.021H90.6043V134.021H89.4543ZM91.7418 134.021V104.021H92.8918V134.021H91.7418ZM98.8442 134.021L103.769 94.021H114.244L119.169 134.021H118.007L113.257 94.9585H104.757L100.007 134.021H98.8442ZM103.457 134.021L104.769 123.071H113.244L114.557 134.021H113.369L112.319 123.996H105.694L104.644 134.021H103.457ZM101.132 134.021L105.494 95.896H112.519L116.882 134.021H115.694L114.344 122.146H103.669L102.319 134.021H101.132ZM103.732 121.221H114.232L113.007 109.746L111.519 96.8335H106.494L104.969 109.746L103.732 121.221ZM105.032 120.283L106.069 109.746L107.282 97.7085H110.732L111.982 109.746L112.982 120.283H105.032ZM106.232 119.358H111.782L110.907 109.746L109.857 98.646H108.157L107.107 109.746L106.232 119.358Z" fill="#67AEB3"/>
<path d="M7.19801 79.2285L10.276 50.4285H14.74L17.8 79.2285H15.37L14.614 70.8765H10.384L9.64601 79.2285H7.19801ZM10.618 68.7165H14.38L13.822 62.4165L13.012 52.5885H12.004L11.194 62.4345L10.618 68.7165ZM20.5132 79.2285V50.4285H24.5812L26.1832 59.5545L28.6312 77.0685H29.4412L29.0272 60.6165L28.8652 50.4285H31.2052V79.2285H26.9932L25.1932 68.8965L23.1412 52.5885H22.2772L22.6732 68.4465L22.8172 79.2285H20.5132ZM33.9168 79.2285L36.9948 50.4285H41.4588L44.5188 79.2285H42.0888L41.3328 70.8765H37.1028L36.3648 79.2285H33.9168ZM37.3368 68.7165H41.0988L40.5408 62.4165L39.7308 52.5885H38.7228L37.9128 62.4345L37.3368 68.7165ZM47.232 79.2285V50.4285H49.608V77.0685H55.368V79.2285H47.232ZM58.3352 79.2285V71.6865V71.6505L54.4292 50.4285H56.8772L58.2632 58.5645L59.2352 66.7905H59.8832L60.8192 58.5645L62.2052 50.4285H64.6892L60.7472 71.6685V71.7045V79.2285H58.3352ZM71.6434 79.4805C69.9873 79.4805 68.7933 79.1145 68.0613 78.3825C67.3413 77.6385 66.9453 76.4205 66.8733 74.7285C66.8613 73.9845 66.8553 73.3065 66.8553 72.6945C66.8553 72.0825 66.8613 71.4705 66.8733 70.8585C66.8853 70.2345 66.9033 69.5505 66.9273 68.8065H69.2133C69.1653 69.8745 69.1413 70.9365 69.1413 71.9925C69.1413 73.0485 69.1653 74.0805 69.2133 75.0885C69.2493 75.9045 69.4533 76.4985 69.8253 76.8705C70.1973 77.2425 70.7973 77.4285 71.6253 77.4285C72.4173 77.4285 72.9873 77.2425 73.3353 76.8705C73.6833 76.4985 73.8814 75.9045 73.9294 75.0885C73.9654 74.4165 73.9893 73.8165 74.0013 73.2885C74.0134 72.7485 74.0134 72.2025 74.0013 71.6505C73.9893 71.0865 73.9654 70.4265 73.9294 69.6705C73.9054 68.7825 73.7794 68.0385 73.5514 67.4385C73.3354 66.8265 72.8794 66.4305 72.1834 66.2505L70.3114 65.7645C69.3873 65.5365 68.6793 65.1945 68.1873 64.7385C67.6953 64.2705 67.3533 63.6585 67.1613 62.9025C66.9813 62.1465 66.8733 61.2165 66.8373 60.1125C66.8253 59.3325 66.8193 58.4805 66.8193 57.5565C66.8313 56.6325 66.8433 55.7385 66.8553 54.8745C66.8913 53.7585 67.0653 52.8585 67.3773 52.1745C67.6893 51.4785 68.1873 50.9745 68.8713 50.6625C69.5673 50.3385 70.4853 50.1765 71.6253 50.1765C73.2093 50.1765 74.3553 50.5425 75.0634 51.2745C75.7714 52.0065 76.1554 53.2185 76.2154 54.9105C76.2393 55.5705 76.2453 56.3865 76.2334 57.3585C76.2334 58.3185 76.2153 59.3385 76.1793 60.4185H73.8753C73.9114 59.4345 73.9294 58.4565 73.9294 57.4845C73.9414 56.5005 73.9294 55.5225 73.8934 54.5505C73.8694 53.7345 73.6713 53.1405 73.2993 52.7685C72.9393 52.3965 72.3693 52.2105 71.5893 52.2105C70.7733 52.2105 70.1913 52.3965 69.8433 52.7685C69.4953 53.1405 69.2973 53.7345 69.2493 54.5505C69.2013 55.4625 69.1773 56.3865 69.1773 57.3225C69.1893 58.2465 69.2133 59.1765 69.2493 60.1125C69.2733 61.1805 69.3993 61.9845 69.6273 62.5245C69.8553 63.0645 70.3293 63.4185 71.0493 63.5865L72.8134 64.0185C73.7614 64.2345 74.4814 64.5825 74.9734 65.0625C75.4774 65.5425 75.8253 66.1665 76.0173 66.9345C76.2093 67.6905 76.3174 68.6025 76.3413 69.6705C76.3654 70.4145 76.3774 71.0445 76.3774 71.5605C76.3774 72.0645 76.3714 72.5565 76.3594 73.0365C76.3594 73.5165 76.3474 74.0805 76.3233 74.7285C76.2634 76.4205 75.8734 77.6385 75.1533 78.3825C74.4333 79.1145 73.2634 79.4805 71.6434 79.4805ZM79.646 79.2285V50.4285H87.764V52.5885H82.022V63.6585H87.404V65.8005H82.022V77.0685H87.764V79.2285H79.646ZM90.5093 79.2285V50.4285H94.8833C96.5153 50.4285 97.6973 50.7885 98.4293 51.5085C99.1613 52.2285 99.5633 53.4225 99.6353 55.0905C99.6713 56.1585 99.6953 57.1725 99.7073 58.1325C99.7193 59.0805 99.7193 60.0045 99.7073 60.9045C99.6953 61.7925 99.6713 62.6805 99.6353 63.5685C99.5993 64.7325 99.3953 65.6625 99.0233 66.3585C98.6513 67.0425 98.0753 67.5285 97.2953 67.8165L100.193 79.2285H97.6373L94.9913 68.2305H92.8853V79.2285H90.5093ZM92.8853 66.0705H94.8653C95.6813 66.0705 96.2693 65.8785 96.6293 65.4945C97.0013 65.1105 97.2053 64.5045 97.2413 63.6765C97.2773 62.7285 97.3013 61.7685 97.3133 60.7965C97.3253 59.8125 97.3253 58.8345 97.3133 57.8625C97.3013 56.8905 97.2773 55.9305 97.2413 54.9825C97.2053 54.1545 97.0073 53.5485 96.6473 53.1645C96.2873 52.7805 95.6993 52.5885 94.8833 52.5885H92.8853V66.0705ZM103.06 79.2285V50.4285H111.178V52.5885H105.436V63.6585H110.818V65.8005H105.436V77.0685H111.178V79.2285H103.06ZM113.923 79.2285V50.4285H118.297C119.929 50.4285 121.111 50.7885 121.843 51.5085C122.575 52.2285 122.977 53.4225 123.049 55.0905C123.085 56.1585 123.109 57.1725 123.121 58.1325C123.133 59.0805 123.133 60.0045 123.121 60.9045C123.109 61.7925 123.085 62.6805 123.049 63.5685C123.013 64.7325 122.809 65.6625 122.437 66.3585C122.065 67.0425 121.489 67.5285 120.709 67.8165L123.607 79.2285H121.051L118.405 68.2305H116.299V79.2285H113.923ZM116.299 66.0705H118.279C119.095 66.0705 119.683 65.8785 120.043 65.4945C120.415 65.1105 120.619 64.5045 120.655 63.6765C120.691 62.7285 120.715 61.7685 120.727 60.7965C120.739 59.8125 120.739 58.8345 120.727 57.8625C120.715 56.8905 120.691 55.9305 120.655 54.9825C120.619 54.1545 120.421 53.5485 120.061 53.1645C119.701 52.7805 119.113 52.5885 118.297 52.5885H116.299V66.0705Z" fill="white"/>
</g>
</g>
<defs>
<clipPath id="clip0_20_75">
<rect width="190" height="165" fill="white"/>
</clipPath>
</defs>
</svg>
