<svg width="340" height="297" viewBox="0 0 340 297" fill="none" xmlns="http://www.w3.org/2000/svg">
<path d="M128.69 6.82786C119.015 16.6175 128.69 50.0744 128.69 50.0744H142.511V25.1677H197.796V50.0744H212.999C212.999 50.0744 221.292 15.219 212.999 6.82786C204.706 -1.56329 138.365 -2.9618 128.69 6.82786Z" fill="#FFA800"/>
<mask id="mask0_1_597" style="mask-type:alpha" maskUnits="userSpaceOnUse" x="0" y="55" width="340" height="242">
<rect y="55.9408" width="340" height="240.546" rx="7" fill="#8C5606"/>
</mask>
<g mask="url(#mask0_1_597)">
<rect y="55.9408" width="340" height="240.546" rx="7" fill="#FFA800"/>
<path d="M14.908 169V140.2H19.192C20.824 140.2 22.012 140.56 22.756 141.28C23.512 142 23.902 143.194 23.926 144.862C23.95 146.062 23.962 147.112 23.962 148.012C23.962 148.912 23.95 149.776 23.926 150.604C23.878 151.612 23.686 152.398 23.35 152.962C23.014 153.526 22.486 153.94 21.766 154.204V154.87C22.51 155.11 23.05 155.518 23.386 156.094C23.734 156.67 23.926 157.462 23.962 158.47C23.986 159.526 23.998 160.504 23.998 161.404C23.998 162.304 23.986 163.282 23.962 164.338C23.902 165.994 23.5 167.188 22.756 167.92C22.024 168.64 20.836 169 19.192 169H14.908ZM17.284 166.84H19.192C19.996 166.84 20.584 166.636 20.956 166.228C21.34 165.82 21.544 165.184 21.568 164.32C21.604 163.3 21.622 162.34 21.622 161.44C21.622 160.54 21.604 159.58 21.568 158.56C21.544 157.492 21.334 156.73 20.938 156.274C20.554 155.806 19.93 155.572 19.066 155.572H17.284V166.84ZM17.284 153.43H19.156C19.96 153.43 20.554 153.196 20.938 152.728C21.322 152.26 21.52 151.54 21.532 150.568C21.58 149.536 21.604 148.564 21.604 147.652C21.604 146.74 21.58 145.774 21.532 144.754C21.52 143.926 21.322 143.32 20.938 142.936C20.554 142.552 19.972 142.36 19.192 142.36H17.284V153.43ZM27.3885 169V140.2H31.7625C33.3945 140.2 34.5765 140.56 35.3085 141.28C36.0405 142 36.4425 143.194 36.5145 144.862C36.5505 145.93 36.5745 146.944 36.5865 147.904C36.5985 148.852 36.5985 149.776 36.5865 150.676C36.5745 151.564 36.5505 152.452 36.5145 153.34C36.4785 154.504 36.2745 155.434 35.9025 156.13C35.5305 156.814 34.9545 157.3 34.1745 157.588L37.0725 169H34.5165L31.8705 158.002H29.7645V169H27.3885ZM29.7645 155.842H31.7445C32.5605 155.842 33.1485 155.65 33.5085 155.266C33.8805 154.882 34.0845 154.276 34.1205 153.448C34.1565 152.5 34.1805 151.54 34.1925 150.568C34.2045 149.584 34.2045 148.606 34.1925 147.634C34.1805 146.662 34.1565 145.702 34.1205 144.754C34.0845 143.926 33.8865 143.32 33.5265 142.936C33.1665 142.552 32.5785 142.36 31.7625 142.36H29.7645V155.842ZM38.8233 169L41.9013 140.2H46.3653L49.4253 169H46.9953L46.2393 160.648H42.0093L41.2713 169H38.8233ZM42.2433 158.488H46.0053L45.4473 152.188L44.6373 142.36H43.6293L42.8193 152.206L42.2433 158.488ZM52.1385 169V140.2H56.2065L57.8085 149.326L60.2565 166.84H61.0665L60.6525 150.388L60.4905 140.2H62.8305V169H58.6185L56.8185 158.668L54.7665 142.36H53.9025L54.2985 158.218L54.4425 169H52.1385ZM66.658 169V140.2H71.266C72.922 140.2 74.116 140.572 74.848 141.316C75.592 142.06 75.976 143.284 76 144.988C76.036 147.268 76.06 149.44 76.072 151.504C76.084 153.568 76.084 155.632 76.072 157.696C76.06 159.748 76.036 161.914 76 164.194C75.976 165.91 75.592 167.14 74.848 167.884C74.104 168.628 72.898 169 71.23 169H66.658ZM69.034 166.84H71.23C72.058 166.84 72.658 166.648 73.03 166.264C73.402 165.868 73.594 165.256 73.606 164.428C73.642 162.784 73.666 161.146 73.678 159.514C73.69 157.87 73.696 156.232 73.696 154.6C73.696 152.956 73.69 151.318 73.678 149.686C73.666 148.042 73.642 146.398 73.606 144.754C73.594 143.926 73.402 143.32 73.03 142.936C72.658 142.552 72.07 142.36 71.266 142.36H69.034V166.84ZM79.6307 169V140.2H82.0067V169H79.6307ZM85.8182 169V140.2H89.8862L91.4882 149.326L93.9362 166.84H94.7462L94.3322 150.388L94.1702 140.2H96.5102V169H92.2982L90.4982 158.668L88.4462 142.36H87.5822L87.9782 158.218L88.1222 169H85.8182ZM104.892 169.252C103.764 169.252 102.858 169.09 102.174 168.766C101.502 168.442 101.004 167.932 100.68 167.236C100.368 166.54 100.2 165.628 100.176 164.5C100.14 162.856 100.11 161.212 100.086 159.568C100.074 157.924 100.068 156.28 100.068 154.636C100.068 152.992 100.074 151.348 100.086 149.704C100.11 148.06 100.14 146.422 100.176 144.79C100.2 143.626 100.374 142.69 100.698 141.982C101.022 141.274 101.52 140.758 102.192 140.434C102.876 140.11 103.764 139.948 104.856 139.948C106.44 139.948 107.592 140.314 108.312 141.046C109.044 141.778 109.446 142.99 109.518 144.682C109.554 145.606 109.572 146.524 109.572 147.436C109.572 148.336 109.554 149.254 109.518 150.19H107.142C107.178 149.218 107.196 148.24 107.196 147.256C107.196 146.26 107.178 145.282 107.142 144.322C107.106 143.506 106.902 142.912 106.53 142.54C106.17 142.168 105.612 141.982 104.856 141.982C104.076 141.982 103.5 142.168 103.128 142.54C102.768 142.912 102.576 143.506 102.552 144.322C102.516 146.05 102.486 147.772 102.462 149.488C102.45 151.192 102.444 152.896 102.444 154.6C102.444 156.292 102.45 157.99 102.462 159.694C102.486 161.398 102.516 163.12 102.552 164.86C102.576 165.676 102.768 166.27 103.128 166.642C103.5 167.014 104.088 167.2 104.892 167.2C105.684 167.2 106.278 167.014 106.674 166.642C107.082 166.27 107.298 165.676 107.322 164.86C107.334 164.212 107.34 163.564 107.34 162.916C107.352 162.256 107.352 161.602 107.34 160.954C107.34 160.294 107.334 159.646 107.322 159.01H104.928V156.868H109.662C109.686 157.792 109.692 158.878 109.68 160.126C109.68 161.362 109.668 162.82 109.644 164.5C109.584 166.192 109.182 167.41 108.438 168.154C107.706 168.886 106.524 169.252 104.892 169.252ZM16.132 212L14.17 183.2H16.582L17.212 194.036L17.986 209.84H18.778L19.534 194.036L20.506 183.38H24.628L25.636 194.036L26.32 209.84H27.112L27.922 194.036L28.588 183.2H30.964L28.966 212H24.628L23.818 202.55L23.008 185.486H22.108L21.28 202.55L20.47 212H16.132ZM34.033 212V183.2H42.151V185.36H36.409V196.43H41.791V198.572H36.409V209.84H42.151V212H34.033ZM44.8963 212V183.2H49.1803C50.8123 183.2 52.0003 183.56 52.7443 184.28C53.5003 185 53.8903 186.194 53.9143 187.862C53.9383 189.062 53.9503 190.112 53.9503 191.012C53.9503 191.912 53.9383 192.776 53.9143 193.604C53.8663 194.612 53.6743 195.398 53.3383 195.962C53.0023 196.526 52.4743 196.94 51.7543 197.204V197.87C52.4983 198.11 53.0383 198.518 53.3743 199.094C53.7223 199.67 53.9143 200.462 53.9503 201.47C53.9743 202.526 53.9863 203.504 53.9863 204.404C53.9863 205.304 53.9743 206.282 53.9503 207.338C53.8903 208.994 53.4883 210.188 52.7443 210.92C52.0123 211.64 50.8243 212 49.1803 212H44.8963ZM47.2723 209.84H49.1803C49.9843 209.84 50.5723 209.636 50.9443 209.228C51.3283 208.82 51.5323 208.184 51.5563 207.32C51.5923 206.3 51.6103 205.34 51.6103 204.44C51.6103 203.54 51.5923 202.58 51.5563 201.56C51.5323 200.492 51.3223 199.73 50.9263 199.274C50.5423 198.806 49.9183 198.572 49.0543 198.572H47.2723V209.84ZM47.2723 196.43H49.1443C49.9483 196.43 50.5423 196.196 50.9263 195.728C51.3103 195.26 51.5083 194.54 51.5203 193.568C51.5683 192.536 51.5923 191.564 51.5923 190.652C51.5923 189.74 51.5683 188.774 51.5203 187.754C51.5083 186.926 51.3103 186.32 50.9263 185.936C50.5423 185.552 49.9603 185.36 49.1803 185.36H47.2723V196.43ZM61.6788 212.252C60.0228 212.252 58.8288 211.886 58.0968 211.154C57.3768 210.41 56.9808 209.192 56.9088 207.5C56.8968 206.756 56.8908 206.078 56.8908 205.466C56.8908 204.854 56.8968 204.242 56.9088 203.63C56.9208 203.006 56.9388 202.322 56.9628 201.578H59.2488C59.2008 202.646 59.1768 203.708 59.1768 204.764C59.1768 205.82 59.2008 206.852 59.2488 207.86C59.2848 208.676 59.4888 209.27 59.8608 209.642C60.2328 210.014 60.8328 210.2 61.6608 210.2C62.4528 210.2 63.0228 210.014 63.3708 209.642C63.7188 209.27 63.9168 208.676 63.9648 207.86C64.0008 207.188 64.0248 206.588 64.0368 206.06C64.0488 205.52 64.0488 204.974 64.0368 204.422C64.0248 203.858 64.0008 203.198 63.9648 202.442C63.9408 201.554 63.8148 200.81 63.5868 200.21C63.3708 199.598 62.9148 199.202 62.2188 199.022L60.3468 198.536C59.4228 198.308 58.7148 197.966 58.2228 197.51C57.7308 197.042 57.3888 196.43 57.1968 195.674C57.0168 194.918 56.9088 193.988 56.8728 192.884C56.8608 192.104 56.8548 191.252 56.8548 190.328C56.8668 189.404 56.8788 188.51 56.8908 187.646C56.9268 186.53 57.1008 185.63 57.4128 184.946C57.7248 184.25 58.2228 183.746 58.9068 183.434C59.6028 183.11 60.5208 182.948 61.6608 182.948C63.2448 182.948 64.3908 183.314 65.0988 184.046C65.8068 184.778 66.1908 185.99 66.2508 187.682C66.2748 188.342 66.2808 189.158 66.2688 190.13C66.2688 191.09 66.2508 192.11 66.2148 193.19H63.9108C63.9468 192.206 63.9648 191.228 63.9648 190.256C63.9768 189.272 63.9648 188.294 63.9288 187.322C63.9048 186.506 63.7068 185.912 63.3348 185.54C62.9748 185.168 62.4048 184.982 61.6248 184.982C60.8088 184.982 60.2268 185.168 59.8788 185.54C59.5308 185.912 59.3328 186.506 59.2848 187.322C59.2368 188.234 59.2128 189.158 59.2128 190.094C59.2248 191.018 59.2488 191.948 59.2848 192.884C59.3088 193.952 59.4348 194.756 59.6628 195.296C59.8908 195.836 60.3648 196.19 61.0848 196.358L62.8488 196.79C63.7968 197.006 64.5168 197.354 65.0088 197.834C65.5128 198.314 65.8608 198.938 66.0527 199.706C66.2448 200.462 66.3528 201.374 66.3768 202.442C66.4008 203.186 66.4128 203.816 66.4128 204.332C66.4128 204.836 66.4068 205.328 66.3948 205.808C66.3948 206.288 66.3828 206.852 66.3588 207.5C66.2988 209.192 65.9088 210.41 65.1888 211.154C64.4688 211.886 63.2988 212.252 61.6788 212.252ZM69.6814 212V183.2H72.0574V212H69.6814ZM75.8689 212V183.2H80.4769C82.1329 183.2 83.3269 183.572 84.0589 184.316C84.8029 185.06 85.1869 186.284 85.2109 187.988C85.2469 190.268 85.2709 192.44 85.2829 194.504C85.2949 196.568 85.2949 198.632 85.2829 200.696C85.2709 202.748 85.2469 204.914 85.2109 207.194C85.1869 208.91 84.8029 210.14 84.0589 210.884C83.3149 211.628 82.1089 212 80.4409 212H75.8689ZM78.2449 209.84H80.4409C81.2689 209.84 81.8689 209.648 82.2409 209.264C82.6129 208.868 82.8049 208.256 82.8169 207.428C82.8529 205.784 82.8769 204.146 82.8889 202.514C82.9009 200.87 82.9069 199.232 82.9069 197.6C82.9069 195.956 82.9009 194.318 82.8889 192.686C82.8769 191.042 82.8529 189.398 82.8169 187.754C82.8049 186.926 82.6129 186.32 82.2409 185.936C81.8689 185.552 81.2809 185.36 80.4769 185.36H78.2449V209.84ZM88.8416 212V183.2H96.9596V185.36H91.2176V196.43H96.5996V198.572H91.2176V209.84H96.9596V212H88.8416ZM16.852 255V228.36H13.18V226.2H22.9V228.36H19.246V255H16.852ZM24.9978 255V226.2H29.3718C31.0038 226.2 32.1858 226.56 32.9178 227.28C33.6498 228 34.0518 229.194 34.1238 230.862C34.1598 231.93 34.1838 232.944 34.1958 233.904C34.2078 234.852 34.2078 235.776 34.1958 236.676C34.1838 237.564 34.1598 238.452 34.1238 239.34C34.0878 240.504 33.8838 241.434 33.5118 242.13C33.1398 242.814 32.5638 243.3 31.7838 243.588L34.6818 255H32.1258L29.4798 244.002H27.3738V255H24.9978ZM27.3738 241.842H29.3538C30.1698 241.842 30.7578 241.65 31.1178 241.266C31.4898 240.882 31.6938 240.276 31.7298 239.448C31.7658 238.5 31.7898 237.54 31.8018 236.568C31.8138 235.584 31.8138 234.606 31.8018 233.634C31.7898 232.662 31.7658 231.702 31.7298 230.754C31.6938 229.926 31.4958 229.32 31.1358 228.936C30.7758 228.552 30.1878 228.36 29.3718 228.36H27.3738V241.842ZM39.7573 255V247.458V247.422L35.8513 226.2H38.2993L39.6853 234.336L40.6573 242.562H41.3053L42.2413 234.336L43.6273 226.2H46.1113L42.1693 247.44V247.476V255H39.7573ZM48.7635 255V226.2H51.2835L51.2475 233.022L50.9055 240.366H51.5175L53.8035 232.374L55.8015 226.2H58.4115L54.1275 239.088L58.8615 255H56.3955L52.5975 241.95L51.1935 245.712V255H48.7635ZM65.5108 255.252C63.8548 255.252 62.6608 254.886 61.9288 254.154C61.2088 253.41 60.8128 252.192 60.7408 250.5C60.7288 249.756 60.7228 249.078 60.7228 248.466C60.7228 247.854 60.7288 247.242 60.7408 246.63C60.7528 246.006 60.7708 245.322 60.7948 244.578H63.0808C63.0328 245.646 63.0088 246.708 63.0088 247.764C63.0088 248.82 63.0328 249.852 63.0808 250.86C63.1168 251.676 63.3208 252.27 63.6928 252.642C64.0648 253.014 64.6648 253.2 65.4928 253.2C66.2848 253.2 66.8548 253.014 67.2028 252.642C67.5508 252.27 67.7488 251.676 67.7968 250.86C67.8328 250.188 67.8568 249.588 67.8688 249.06C67.8808 248.52 67.8808 247.974 67.8688 247.422C67.8568 246.858 67.8328 246.198 67.7968 245.442C67.7728 244.554 67.6468 243.81 67.4188 243.21C67.2028 242.598 66.7468 242.202 66.0508 242.022L64.1788 241.536C63.2548 241.308 62.5468 240.966 62.0548 240.51C61.5628 240.042 61.2208 239.43 61.0288 238.674C60.8488 237.918 60.7408 236.988 60.7048 235.884C60.6928 235.104 60.6868 234.252 60.6868 233.328C60.6988 232.404 60.7108 231.51 60.7228 230.646C60.7588 229.53 60.9328 228.63 61.2448 227.946C61.5568 227.25 62.0548 226.746 62.7388 226.434C63.4348 226.11 64.3528 225.948 65.4928 225.948C67.0768 225.948 68.2228 226.314 68.9308 227.046C69.6388 227.778 70.0228 228.99 70.0828 230.682C70.1068 231.342 70.1128 232.158 70.1008 233.13C70.1008 234.09 70.0828 235.11 70.0468 236.19H67.7428C67.7788 235.206 67.7968 234.228 67.7968 233.256C67.8088 232.272 67.7968 231.294 67.7608 230.322C67.7368 229.506 67.5388 228.912 67.1668 228.54C66.8068 228.168 66.2368 227.982 65.4568 227.982C64.6408 227.982 64.0588 228.168 63.7108 228.54C63.3628 228.912 63.1648 229.506 63.1168 230.322C63.0688 231.234 63.0448 232.158 63.0448 233.094C63.0568 234.018 63.0808 234.948 63.1168 235.884C63.1408 236.952 63.2668 237.756 63.4948 238.296C63.7228 238.836 64.1968 239.19 64.9168 239.358L66.6808 239.79C67.6288 240.006 68.3488 240.354 68.8408 240.834C69.3448 241.314 69.6928 241.938 69.8848 242.706C70.0768 243.462 70.1848 244.374 70.2088 245.442C70.2328 246.186 70.2448 246.816 70.2448 247.332C70.2448 247.836 70.2388 248.328 70.2268 248.808C70.2268 249.288 70.2148 249.852 70.1908 250.5C70.1308 252.192 69.7408 253.41 69.0208 254.154C68.3008 254.886 67.1308 255.252 65.5108 255.252ZM72.3975 255L75.4755 226.2H79.9395L82.9995 255H80.5695L79.8135 246.648H75.5835L74.8455 255H72.3975ZM75.8175 244.488H79.5795L79.0215 238.188L78.2115 228.36H77.2035L76.3935 238.206L75.8175 244.488ZM90.0558 255.252C88.9278 255.252 88.0218 255.09 87.3378 254.766C86.6658 254.442 86.1678 253.932 85.8438 253.236C85.5318 252.54 85.3638 251.628 85.3398 250.5C85.3038 248.856 85.2738 247.212 85.2498 245.568C85.2378 243.924 85.2318 242.28 85.2318 240.636C85.2318 238.992 85.2378 237.348 85.2498 235.704C85.2738 234.06 85.3038 232.422 85.3398 230.79C85.3638 229.626 85.5378 228.69 85.8618 227.982C86.1858 227.274 86.6838 226.758 87.3558 226.434C88.0398 226.11 88.9278 225.948 90.0198 225.948C91.6038 225.948 92.7558 226.314 93.4758 227.046C94.2078 227.778 94.6098 228.99 94.6818 230.682C94.7178 231.606 94.7358 232.524 94.7358 233.436C94.7358 234.336 94.7178 235.254 94.6818 236.19H92.3058C92.3418 235.218 92.3598 234.24 92.3598 233.256C92.3598 232.26 92.3418 231.282 92.3058 230.322C92.2698 229.506 92.0658 228.912 91.6938 228.54C91.3338 228.168 90.7758 227.982 90.0198 227.982C89.2398 227.982 88.6638 228.168 88.2918 228.54C87.9318 228.912 87.7398 229.506 87.7158 230.322C87.6798 232.05 87.6498 233.772 87.6258 235.488C87.6138 237.192 87.6078 238.896 87.6078 240.6C87.6078 242.292 87.6138 243.99 87.6258 245.694C87.6498 247.398 87.6798 249.12 87.7158 250.86C87.7398 251.676 87.9318 252.27 88.2918 252.642C88.6638 253.014 89.2518 253.2 90.0558 253.2C90.8478 253.2 91.4418 253.014 91.8378 252.642C92.2458 252.27 92.4618 251.676 92.4858 250.86C92.4978 250.212 92.5038 249.564 92.5038 248.916C92.5158 248.256 92.5158 247.602 92.5038 246.954C92.5038 246.294 92.4978 245.646 92.4858 245.01H90.0918V242.868H94.8258C94.8498 243.792 94.8558 244.878 94.8438 246.126C94.8438 247.362 94.8318 248.82 94.8078 250.5C94.7478 252.192 94.3458 253.41 93.6018 254.154C92.8698 254.886 91.6878 255.252 90.0558 255.252ZM98.0525 255V226.2H106.171V228.36H100.429V239.43H105.811V241.572H100.429V252.84H106.171V255H98.0525ZM108.916 255V226.2H113.29C114.922 226.2 116.104 226.56 116.836 227.28C117.568 228 117.97 229.194 118.042 230.862C118.078 231.93 118.102 232.944 118.114 233.904C118.126 234.852 118.126 235.776 118.114 236.676C118.102 237.564 118.078 238.452 118.042 239.34C118.006 240.504 117.802 241.434 117.43 242.13C117.058 242.814 116.482 243.3 115.702 243.588L118.6 255H116.044L113.398 244.002H111.292V255H108.916ZM111.292 241.842H113.272C114.088 241.842 114.676 241.65 115.036 241.266C115.408 240.882 115.612 240.276 115.648 239.448C115.684 238.5 115.708 237.54 115.72 236.568C115.732 235.584 115.732 234.606 115.72 233.634C115.708 232.662 115.684 231.702 115.648 230.754C115.612 229.926 115.414 229.32 115.054 228.936C114.694 228.552 114.106 228.36 113.29 228.36H111.292V241.842Z" fill="white"/>
<path d="M15.544 117V78.6H18.712V117H15.544ZM23.794 117V78.6H29.218L31.354 90.768L34.618 114.12H35.698L35.146 92.184L34.93 78.6H38.05V117H32.434L30.034 103.224L27.298 81.48H26.146L26.674 102.624L26.866 117H23.794ZM43.1534 117V78.6H48.5774L50.7134 90.768L53.9774 114.12H55.0574L54.5054 92.184L54.2894 78.6H57.4094V117H51.7934L49.3934 103.224L46.6574 81.48H45.5054L46.0334 102.624L46.2254 117H43.1534ZM68.6088 117.336C66.3848 117.336 64.7848 116.856 63.8088 115.896C62.8488 114.92 62.3448 113.32 62.2968 111.096C62.2488 108.808 62.2088 106.568 62.1768 104.376C62.1608 102.168 62.1528 99.976 62.1528 97.8C62.1528 95.624 62.1608 93.44 62.1768 91.248C62.2088 89.056 62.2488 86.808 62.2968 84.504C62.3448 82.28 62.8488 80.688 63.8088 79.728C64.7848 78.752 66.3848 78.264 68.6088 78.264C70.8488 78.264 72.4488 78.752 73.4088 79.728C74.3848 80.688 74.8888 82.28 74.9208 84.504C74.9688 86.808 75.0008 89.064 75.0168 91.272C75.0488 93.464 75.0648 95.648 75.0648 97.824C75.0648 99.984 75.0488 102.168 75.0168 104.376C75.0008 106.568 74.9688 108.808 74.9208 111.096C74.8888 113.32 74.3848 114.92 73.4088 115.896C72.4488 116.856 70.8488 117.336 68.6088 117.336ZM68.6088 114.6C69.7288 114.6 70.5288 114.376 71.0088 113.928C71.4888 113.464 71.7368 112.68 71.7528 111.576C71.8168 109.224 71.8568 106.896 71.8728 104.592C71.9048 102.272 71.9208 99.976 71.9208 97.704C71.9208 95.416 71.9048 93.136 71.8728 90.864C71.8408 88.576 71.8008 86.296 71.7528 84.024C71.7368 82.92 71.4808 82.136 70.9848 81.672C70.5048 81.208 69.7128 80.976 68.6088 80.976C67.5208 80.976 66.7368 81.208 66.2568 81.672C65.7768 82.136 65.5208 82.92 65.4888 84.024C65.4248 86.296 65.3768 88.576 65.3448 90.864C65.3128 93.136 65.2968 95.416 65.2968 97.704C65.3128 99.976 65.3368 102.272 65.3688 104.592C65.4008 106.896 65.4408 109.224 65.4888 111.576C65.5208 112.68 65.7768 113.464 66.2568 113.928C66.7368 114.376 67.5208 114.6 68.6088 114.6ZM81.8654 117L77.8334 78.6H81.1454L83.2334 99.984L84.2174 114.12H85.5134L86.4734 99.984L88.5614 78.6H91.9214L87.8414 117H81.8654ZM93.3685 117L97.4725 78.6H103.425L107.505 117H104.265L103.257 105.864H97.6165L96.6325 117H93.3685ZM97.9285 102.984H102.945L102.201 94.584L101.121 81.48H99.7765L98.6965 94.608L97.9285 102.984ZM112.449 117V81.48H107.553V78.6H120.513V81.48H115.641V117H112.449ZM123.31 117V78.6H126.478V117H123.31ZM137.656 117.336C135.432 117.336 133.832 116.856 132.856 115.896C131.896 114.92 131.392 113.32 131.344 111.096C131.296 108.808 131.256 106.568 131.224 104.376C131.208 102.168 131.2 99.976 131.2 97.8C131.2 95.624 131.208 93.44 131.224 91.248C131.256 89.056 131.296 86.808 131.344 84.504C131.392 82.28 131.896 80.688 132.856 79.728C133.832 78.752 135.432 78.264 137.656 78.264C139.896 78.264 141.496 78.752 142.456 79.728C143.432 80.688 143.936 82.28 143.968 84.504C144.016 86.808 144.048 89.064 144.064 91.272C144.096 93.464 144.112 95.648 144.112 97.824C144.112 99.984 144.096 102.168 144.064 104.376C144.048 106.568 144.016 108.808 143.968 111.096C143.936 113.32 143.432 114.92 142.456 115.896C141.496 116.856 139.896 117.336 137.656 117.336ZM137.656 114.6C138.776 114.6 139.576 114.376 140.056 113.928C140.536 113.464 140.784 112.68 140.8 111.576C140.864 109.224 140.904 106.896 140.92 104.592C140.952 102.272 140.968 99.976 140.968 97.704C140.968 95.416 140.952 93.136 140.92 90.864C140.888 88.576 140.848 86.296 140.8 84.024C140.784 82.92 140.528 82.136 140.032 81.672C139.552 81.208 138.76 80.976 137.656 80.976C136.568 80.976 135.784 81.208 135.304 81.672C134.824 82.136 134.568 82.92 134.536 84.024C134.472 86.296 134.424 88.576 134.392 90.864C134.36 93.136 134.344 95.416 134.344 97.704C134.36 99.976 134.384 102.272 134.416 104.592C134.448 106.896 134.488 109.224 134.536 111.576C134.568 112.68 134.824 113.464 135.304 113.928C135.784 114.376 136.568 114.6 137.656 114.6ZM148.81 117V78.6H154.234L156.37 90.768L159.634 114.12H160.714L160.162 92.184L159.946 78.6H163.066V117H157.45L155.05 103.224L152.314 81.48H151.162L151.69 102.624L151.882 117H148.81Z" fill="white"/>
</g>
</svg>
