<svg width="190" height="165" viewBox="0 0 190 165" fill="none" xmlns="http://www.w3.org/2000/svg">
<g clip-path="url(#clip0_20_100)">
<path d="M71.9152 3.79981C66.5087 9.24792 71.9152 27.8672 71.9152 27.8672H79.6388V14.0063H110.533V27.8672H119.029C119.029 27.8672 123.663 8.46963 119.029 3.79981C114.395 -0.869996 77.3217 -1.64829 71.9152 3.79981Z" fill="#3E8F22"/>
<mask id="mask0_20_100" style="mask-type:alpha" maskUnits="userSpaceOnUse" x="0" y="31" width="190" height="134">
<rect y="31.1321" width="190" height="133.868" rx="7" fill="#8C5606"/>
</mask>
<g mask="url(#mask0_20_100)">
<rect y="31.1321" width="190" height="133.868" rx="7" fill="#3E8F22"/>
<path d="M7.77908 61.7227H14.7291L13.5291 48.3227L7.77908 46.8227V31.9727C7.77908 31.4393 7.97908 30.9227 8.37908 30.4227C8.81241 29.8893 9.27908 29.6227 9.77908 29.6227H18.1291V32.0727L11.0291 33.0227L11.7791 44.0727L18.1291 45.7227V62.1227C18.1291 62.8227 17.7791 63.506 17.0791 64.1727C16.3791 64.806 15.6624 65.1227 14.9291 65.1227H7.77908V61.7227ZM22.7533 30.7727H25.7533V61.6727L30.1033 61.9727L29.0533 29.6227H33.2533V63.1227C33.2533 63.5893 33.0033 64.0393 32.5033 64.4727C32.0366 64.906 31.57 65.1227 31.1033 65.1227H22.7533V30.7727ZM38.3552 29.6227H41.5052L42.5552 64.1227H38.3552V29.6227ZM49.7166 34.3727L46.1166 33.1727L46.7666 29.6227L57.1166 30.3227L57.3666 33.4727H52.9666V65.1227H48.7166L49.7166 34.3727ZM66.2037 65.1227C64.5037 65.1227 63.237 64.8393 62.4037 64.2727C61.5704 63.6727 61.1537 62.9227 61.1537 62.0227V32.4227C61.1537 31.6227 61.5037 30.956 62.2037 30.4227C62.9037 29.8893 63.887 29.6227 65.1537 29.6227H73.3537V32.4227L72.5537 38.6727H69.2537L68.7537 33.0227C68.7204 32.7227 68.5204 32.5727 68.1537 32.5727H66.0537C65.3204 32.5727 64.837 32.856 64.6037 33.4227C64.4037 33.956 64.3204 34.7227 64.3537 35.7227L65.4037 60.6727C65.4037 60.8727 65.5037 60.9727 65.7037 60.9727H68.6537C69.0204 60.9727 69.2204 60.8727 69.2537 60.6727L70.2537 56.7727H73.3537V65.1227H66.2037ZM79.124 29.6227H88.274V65.1227H85.374L84.074 51.2227H81.524L79.224 65.1227H76.874L79.124 29.6227ZM84.824 48.8727C85.024 48.8727 85.124 48.7727 85.124 48.5727V31.5227C85.124 31.3227 85.024 31.2227 84.824 31.2227H82.674C82.474 31.2227 82.374 31.3227 82.374 31.5227V48.6227C82.374 48.7893 82.474 48.8727 82.674 48.8727H84.824ZM92.7806 56.5727H95.6806V60.9227L99.1806 61.7227L99.9806 48.4227L93.2306 46.9227V30.8227L95.2306 29.6227H103.081L102.831 36.6727H100.981L99.9806 32.7727L96.9806 33.1227L96.2306 44.2227L103.481 45.5227L102.781 62.1227C102.781 62.7893 102.347 63.456 101.481 64.1227C100.614 64.7893 99.814 65.1227 99.0806 65.1227H93.2306L92.7806 56.5727ZM108.153 29.6227H118.853V32.7227L112.603 32.4227V43.7727L118.853 44.9227V47.3227L111.753 47.0227V61.3727L118.853 60.9727V65.1227H108.153V29.6227Z" fill="#3E8F22"/>
<path d="M14.5746 57.8129V17.8129H26.0621L28.4246 37.6129L29.8746 53.1004H31.0621L32.4996 37.6129L34.8746 17.8129H46.3621V57.8129H45.2121V18.7379H35.8621L33.4871 38.3629L31.9496 54.0254H28.9871L27.4496 38.3629L25.0621 18.7379H15.7121V57.8129H14.5746ZM19.2496 57.8129V41.5004L18.5371 21.5129H22.2746L24.5246 41.3879L26.0246 56.8004H34.9121L36.3996 41.3879L38.6621 21.5129H42.3871L41.6746 41.5004V57.8129H40.5371V42.3504L41.2746 22.4379H39.5246L37.3871 42.3504L36.0121 57.7379H24.9246L23.5371 42.3504L21.4121 22.4379H19.6496L20.3996 42.3504V57.8129H19.2496ZM16.8621 57.8129V39.6129L16.5246 19.6629H24.1121L26.4871 39.2254L27.9496 54.9504H32.9746L34.4371 39.2254L36.8246 19.6629H44.4121L44.0746 39.6129V57.8129H42.9246V40.6879L43.3371 20.5879H37.7996L35.4121 40.4629L33.9246 55.8754H27.0121L25.5246 40.4629L23.1246 20.5879H17.5996L17.9996 40.6879V57.8129H16.8621ZM51.9281 57.8129V17.8129H67.6906V18.8004H53.0656V56.8254H67.6906V57.8129H51.9281ZM56.5031 53.8379V39.0629H67.1906V40.0629H57.6531V52.8504H67.6906V53.8379H56.5031ZM54.2156 55.8254V19.8004H67.6906V20.7879H55.3531V37.0754H67.1906V38.0754H55.3531V54.8379H67.6906V55.8254H54.2156ZM56.5031 36.0879V21.7879H67.6906V22.7754H57.6531V35.0879H67.1906V36.0879H56.5031ZM71.85 57.8129V17.8129H80.925C82.7166 17.8129 84.2875 18.0337 85.6375 18.4754C86.9958 18.9087 88.0625 19.7337 88.8375 20.9504C89.6208 22.1587 90.0375 23.9295 90.0875 26.2629C90.1375 28.8712 90.1708 31.3795 90.1875 33.7879C90.2041 36.1962 90.2041 38.6587 90.1875 41.1754C90.1791 43.692 90.1458 46.4129 90.0875 49.3379C90.0375 51.6379 89.6375 53.4004 88.8875 54.6254C88.1375 55.842 87.0958 56.6795 85.7625 57.1379C84.4375 57.5879 82.875 57.8129 81.075 57.8129H71.85ZM72.9875 56.8254H81.075C82.1583 56.8254 83.1666 56.7295 84.1 56.5379C85.0416 56.3379 85.8666 55.9754 86.575 55.4504C87.2916 54.9254 87.8541 54.167 88.2625 53.1754C88.6791 52.1837 88.9041 50.892 88.9375 49.3004C88.9875 46.8754 89.0208 44.4129 89.0375 41.9129C89.0541 39.4045 89.0541 36.8504 89.0375 34.2504C89.0208 31.642 88.9875 28.9879 88.9375 26.2879C88.8958 24.2879 88.5458 22.7462 87.8875 21.6629C87.2375 20.5795 86.3208 19.8337 85.1375 19.4254C83.9541 19.0087 82.55 18.8004 80.925 18.8004H72.9875V56.8254ZM74.1375 55.8254V19.8004H80.925C82.3333 19.8004 83.5416 19.9795 84.55 20.3379C85.5666 20.6962 86.3541 21.342 86.9125 22.2754C87.4708 23.2087 87.7625 24.5462 87.7875 26.2879C87.8291 28.3295 87.8583 30.2837 87.875 32.1504C87.8916 34.0087 87.9 35.8504 87.9 37.6754C87.9 39.492 87.8916 41.3545 87.875 43.2629C87.8583 45.1629 87.8291 47.1754 87.7875 49.3004C87.7625 51.1004 87.4583 52.4712 86.875 53.4129C86.2916 54.3545 85.5 54.992 84.5 55.3254C83.5083 55.6587 82.3666 55.8254 81.075 55.8254H74.1375ZM75.275 54.8379H81.075C82.8666 54.8379 84.2333 54.442 85.175 53.6504C86.1166 52.8587 86.6083 51.3962 86.65 49.2629C86.7 46.6795 86.7333 44.1462 86.75 41.6629C86.7666 39.1795 86.7666 36.6754 86.75 34.1504C86.7333 31.6254 86.7 29.017 86.65 26.3254C86.6 24.1254 86.0708 22.6545 85.0625 21.9129C84.0625 21.1629 82.6833 20.7879 80.925 20.7879H75.275V54.8379ZM76.425 53.8379V21.7879H80.925C81.7416 21.7879 82.4875 21.892 83.1625 22.1004C83.8458 22.3087 84.3958 22.7379 84.8125 23.3879C85.2375 24.0295 85.4625 25.0212 85.4875 26.3629C85.5458 29.0295 85.5833 31.5712 85.6 33.9879C85.625 36.4045 85.6291 38.8462 85.6125 41.3129C85.5958 43.7712 85.5541 46.4129 85.4875 49.2379C85.4458 51.1295 85.025 52.3712 84.225 52.9629C83.425 53.5462 82.375 53.8379 81.075 53.8379H76.425ZM77.575 52.8504H81.075C81.7 52.8504 82.2541 52.7545 82.7375 52.5629C83.2208 52.3712 83.6083 52.0129 83.9 51.4879C84.1916 50.9545 84.3458 50.1879 84.3625 49.1879C84.4125 46.7379 84.4458 44.242 84.4625 41.7004C84.4791 39.1587 84.4791 36.6045 84.4625 34.0379C84.4458 31.4712 84.4125 28.9295 84.3625 26.4129C84.3291 24.9462 84.0041 23.9754 83.3875 23.5004C82.7708 23.017 81.95 22.7754 80.925 22.7754H77.575V52.8504ZM95.075 19.0004V17.9879H100.8V19.0004H95.075ZM95.075 23.0379V22.0254H100.8V23.0379H95.075ZM95.075 21.0254V20.0129H100.8V21.0254H95.075ZM99.6625 57.8129V27.8129H100.8V57.8129H99.6625ZM95.075 57.8129V27.8129H96.225V57.8129H95.075ZM97.3625 57.8129V27.8129H98.5125V57.8129H97.3625ZM104.465 57.8129L109.39 17.8129H119.865L124.79 57.8129H123.627L118.877 18.7504H110.377L105.627 57.8129H104.465ZM109.077 57.8129L110.39 46.8629H118.865L120.177 57.8129H118.99L117.94 47.7879H111.315L110.265 57.8129H109.077ZM106.752 57.8129L111.115 19.6879H118.14L122.502 57.8129H121.315L119.965 45.9379H109.29L107.94 57.8129H106.752ZM109.352 45.0129H119.852L118.627 33.5379L117.14 20.6254H112.115L110.59 33.5379L109.352 45.0129ZM110.652 44.0754L111.69 33.5379L112.902 21.5004H116.352L117.602 33.5379L118.602 44.0754H110.652ZM111.852 43.1504H117.402L116.527 33.5379L115.477 22.4379H113.777L112.727 33.5379L111.852 43.1504Z" fill="#3E8F22"/>
<path d="M36.3229 152.506V123.706H38.6989V152.506H36.3229ZM42.5104 152.506V123.706H46.5784L48.1804 132.832L50.6284 150.346H51.4384L51.0244 133.894L50.8624 123.706H53.2024V152.506H48.9904L47.1904 142.174L45.1384 125.866H44.2744L44.6704 141.724L44.8144 152.506H42.5104ZM57.0299 152.506V123.706H65.1479V125.866H59.4059V136.936H64.7879V139.078H59.4059V152.506H57.0299ZM67.6471 152.506V123.706H70.0231V150.346H75.7831V152.506H67.6471ZM82.4814 152.758C80.8254 152.758 79.6374 152.398 78.9174 151.678C78.1974 150.946 77.8254 149.746 77.8014 148.078C77.7534 144.022 77.7294 139.96 77.7294 135.892C77.7294 131.824 77.7534 127.762 77.8014 123.706H80.1774C80.1534 126.406 80.1294 129.148 80.1054 131.932C80.0934 134.704 80.0934 137.476 80.1054 140.248C80.1174 143.008 80.1354 145.738 80.1594 148.438C80.1594 149.23 80.3514 149.806 80.7354 150.166C81.1194 150.526 81.7014 150.706 82.4814 150.706C83.2854 150.706 83.8674 150.526 84.2274 150.166C84.5994 149.806 84.7854 149.23 84.7854 148.438C84.8094 145.738 84.8274 143.008 84.8394 140.248C84.8514 137.476 84.8514 134.704 84.8394 131.932C84.8394 129.148 84.8214 126.406 84.7854 123.706H87.1794C87.2274 127.762 87.2514 131.824 87.2514 135.892C87.2514 139.96 87.2274 144.022 87.1794 148.078C87.1554 149.746 86.7834 150.946 86.0634 151.678C85.3434 152.398 84.1494 152.758 82.4814 152.758ZM90.7096 152.506V123.706H98.8276V125.866H93.0856V136.936H98.4676V139.078H93.0856V150.346H98.8276V152.506H90.7096ZM101.573 152.506V123.706H105.641L107.243 132.832L109.691 150.346H110.501L110.087 133.894L109.925 123.706H112.265V152.506H108.053L106.253 142.174L104.201 125.866H103.337L103.733 141.724L103.877 152.506H101.573ZM120.394 152.758C118.738 152.758 117.544 152.392 116.812 151.66C116.092 150.916 115.696 149.698 115.624 148.006C115.612 147.262 115.606 146.584 115.606 145.972C115.606 145.36 115.612 144.748 115.624 144.136C115.636 143.512 115.654 142.828 115.678 142.084H117.964C117.916 143.152 117.892 144.214 117.892 145.27C117.892 146.326 117.916 147.358 117.964 148.366C118 149.182 118.204 149.776 118.576 150.148C118.948 150.52 119.548 150.706 120.376 150.706C121.168 150.706 121.738 150.52 122.086 150.148C122.434 149.776 122.632 149.182 122.68 148.366C122.716 147.694 122.74 147.094 122.752 146.566C122.764 146.026 122.764 145.48 122.752 144.928C122.74 144.364 122.716 143.704 122.68 142.948C122.656 142.06 122.53 141.316 122.302 140.716C122.086 140.104 121.63 139.708 120.934 139.528L119.062 139.042C118.138 138.814 117.43 138.472 116.938 138.016C116.446 137.548 116.104 136.936 115.912 136.18C115.732 135.424 115.624 134.494 115.588 133.39C115.576 132.61 115.57 131.758 115.57 130.834C115.582 129.91 115.594 129.016 115.606 128.152C115.642 127.036 115.816 126.136 116.128 125.452C116.44 124.756 116.938 124.252 117.622 123.94C118.318 123.616 119.236 123.454 120.376 123.454C121.96 123.454 123.106 123.82 123.814 124.552C124.522 125.284 124.906 126.496 124.966 128.188C124.99 128.848 124.996 129.664 124.984 130.636C124.984 131.596 124.966 132.616 124.93 133.696H122.626C122.662 132.712 122.68 131.734 122.68 130.762C122.692 129.778 122.68 128.8 122.644 127.828C122.62 127.012 122.422 126.418 122.05 126.046C121.69 125.674 121.12 125.488 120.34 125.488C119.524 125.488 118.942 125.674 118.594 126.046C118.246 126.418 118.048 127.012 118 127.828C117.952 128.74 117.928 129.664 117.928 130.6C117.94 131.524 117.964 132.454 118 133.39C118.024 134.458 118.15 135.262 118.378 135.802C118.606 136.342 119.08 136.696 119.8 136.864L121.564 137.296C122.512 137.512 123.232 137.86 123.724 138.34C124.228 138.82 124.576 139.444 124.768 140.212C124.96 140.968 125.068 141.88 125.092 142.948C125.116 143.692 125.128 144.322 125.128 144.838C125.128 145.342 125.122 145.834 125.11 146.314C125.11 146.794 125.098 147.358 125.074 148.006C125.014 149.698 124.624 150.916 123.904 151.66C123.184 152.392 122.014 152.758 120.394 152.758ZM128.397 152.506V123.706H136.515V125.866H130.773V136.936H136.155V139.078H130.773V150.346H136.515V152.506H128.397ZM139.26 152.506V123.706H143.634C145.266 123.706 146.448 124.066 147.18 124.786C147.912 125.506 148.314 126.7 148.386 128.368C148.422 129.436 148.446 130.45 148.458 131.41C148.47 132.358 148.47 133.282 148.458 134.182C148.446 135.07 148.422 135.958 148.386 136.846C148.35 138.01 148.146 138.94 147.774 139.636C147.402 140.32 146.826 140.806 146.046 141.094L148.944 152.506H146.388L143.742 141.508H141.636V152.506H139.26ZM141.636 139.348H143.616C144.432 139.348 145.02 139.156 145.38 138.772C145.752 138.388 145.956 137.782 145.992 136.954C146.028 136.006 146.052 135.046 146.064 134.074C146.076 133.09 146.076 132.112 146.064 131.14C146.052 130.168 146.028 129.208 145.992 128.26C145.956 127.432 145.758 126.826 145.398 126.442C145.038 126.058 144.45 125.866 143.634 125.866H141.636V139.348Z" fill="white"/>
</g>
</g>
<defs>
<clipPath id="clip0_20_100">
<rect width="190" height="165" fill="white"/>
</clipPath>
</defs>
</svg>
