<svg width="340" height="297" viewBox="0 0 340 297" fill="none" xmlns="http://www.w3.org/2000/svg">
<path d="M128.69 6.82786C119.015 16.6175 128.69 50.0744 128.69 50.0744H142.511V25.1677H197.796V50.0744H212.999C212.999 50.0744 221.292 15.219 212.999 6.82786C204.706 -1.56329 138.365 -2.9618 128.69 6.82786Z" fill="#3E8F22"/>
<mask id="mask0_1_620" style="mask-type:alpha" maskUnits="userSpaceOnUse" x="0" y="55" width="340" height="242">
<rect y="55.9413" width="340" height="240.546" rx="7" fill="#8C5606"/>
</mask>
<g mask="url(#mask0_1_620)">
<rect y="55.9413" width="340" height="240.546" rx="7" fill="#3E8F22"/>
<path d="M21.908 161V132.2H26.282L28.01 143.972L29.162 158.714H29.846L30.962 143.972L32.726 132.2H37.1V161H34.688V152.612L35.12 134.36H34.31L32.384 152.72L31.088 160.874H27.884L26.624 152.72L24.698 134.36H23.924L24.302 152.612V161H21.908ZM39.8115 161L42.8895 132.2H47.3535L50.4135 161H47.9835L47.2275 152.648H42.9975L42.2595 161H39.8115ZM43.2315 150.488H46.9935L46.4355 144.188L45.6255 134.36H44.6175L43.8075 144.206L43.2315 150.488ZM53.1268 161V132.2H57.5008C59.1328 132.2 60.3148 132.56 61.0468 133.28C61.7788 134 62.1808 135.194 62.2528 136.862C62.2888 137.93 62.3128 138.944 62.3248 139.904C62.3368 140.852 62.3368 141.776 62.3248 142.676C62.3128 143.564 62.2888 144.452 62.2528 145.34C62.2168 146.504 62.0128 147.434 61.6408 148.13C61.2688 148.814 60.6928 149.3 59.9128 149.588L62.8108 161H60.2548L57.6088 150.002H55.5028V161H53.1268ZM55.5028 147.842H57.4828C58.2988 147.842 58.8868 147.65 59.2468 147.266C59.6188 146.882 59.8228 146.276 59.8588 145.448C59.8948 144.5 59.9188 143.54 59.9308 142.568C59.9428 141.584 59.9428 140.606 59.9308 139.634C59.9188 138.662 59.8948 137.702 59.8588 136.754C59.8228 135.926 59.6248 135.32 59.2648 134.936C58.9048 134.552 58.3168 134.36 57.5008 134.36H55.5028V147.842ZM65.6775 161V132.2H68.1975L68.1615 139.022L67.8195 146.366H68.4315L70.7175 138.374L72.7155 132.2H75.3255L71.0415 145.088L75.7755 161H73.3095L69.5115 147.95L68.1075 151.712V161H65.6775ZM78.1228 161V132.2H86.2408V134.36H80.4988V145.43H85.8808V147.572H80.4988V158.84H86.2408V161H78.1228ZM88.9861 161V132.2H93.5941C95.2501 132.2 96.4441 132.572 97.1761 133.316C97.9201 134.06 98.3041 135.284 98.3281 136.988C98.3641 139.268 98.3881 141.44 98.4001 143.504C98.4121 145.568 98.4121 147.632 98.4001 149.696C98.3881 151.748 98.3641 153.914 98.3281 156.194C98.3041 157.91 97.9201 159.14 97.1761 159.884C96.4321 160.628 95.2261 161 93.5581 161H88.9861ZM91.3621 158.84H93.5581C94.3861 158.84 94.9861 158.648 95.3581 158.264C95.7301 157.868 95.9221 157.256 95.9341 156.428C95.9701 154.784 95.9941 153.146 96.0061 151.514C96.0181 149.87 96.0241 148.232 96.0241 146.6C96.0241 144.956 96.0181 143.318 96.0061 141.686C95.9941 140.042 95.9701 138.398 95.9341 136.754C95.9221 135.926 95.7301 135.32 95.3581 134.936C94.9861 134.552 94.3981 134.36 93.5941 134.36H91.3621V158.84ZM106.261 161.252C104.605 161.252 103.411 160.886 102.679 160.154C101.959 159.41 101.563 158.192 101.491 156.5C101.479 155.756 101.473 155.078 101.473 154.466C101.473 153.854 101.479 153.242 101.491 152.63C101.503 152.006 101.521 151.322 101.545 150.578H103.831C103.783 151.646 103.759 152.708 103.759 153.764C103.759 154.82 103.783 155.852 103.831 156.86C103.867 157.676 104.071 158.27 104.443 158.642C104.815 159.014 105.415 159.2 106.243 159.2C107.035 159.2 107.605 159.014 107.953 158.642C108.301 158.27 108.499 157.676 108.547 156.86C108.583 156.188 108.607 155.588 108.619 155.06C108.631 154.52 108.631 153.974 108.619 153.422C108.607 152.858 108.583 152.198 108.547 151.442C108.523 150.554 108.397 149.81 108.169 149.21C107.953 148.598 107.497 148.202 106.801 148.022L104.929 147.536C104.005 147.308 103.297 146.966 102.805 146.51C102.313 146.042 101.971 145.43 101.779 144.674C101.599 143.918 101.491 142.988 101.455 141.884C101.443 141.104 101.437 140.252 101.437 139.328C101.449 138.404 101.461 137.51 101.473 136.646C101.509 135.53 101.683 134.63 101.995 133.946C102.307 133.25 102.805 132.746 103.489 132.434C104.185 132.11 105.103 131.948 106.243 131.948C107.827 131.948 108.973 132.314 109.681 133.046C110.389 133.778 110.773 134.99 110.833 136.682C110.857 137.342 110.863 138.158 110.851 139.13C110.851 140.09 110.833 141.11 110.797 142.19H108.493C108.529 141.206 108.547 140.228 108.547 139.256C108.559 138.272 108.547 137.294 108.511 136.322C108.487 135.506 108.289 134.912 107.917 134.54C107.557 134.168 106.987 133.982 106.207 133.982C105.391 133.982 104.809 134.168 104.461 134.54C104.113 134.912 103.915 135.506 103.867 136.322C103.819 137.234 103.795 138.158 103.795 139.094C103.807 140.018 103.831 140.948 103.867 141.884C103.891 142.952 104.017 143.756 104.245 144.296C104.473 144.836 104.947 145.19 105.667 145.358L107.431 145.79C108.379 146.006 109.099 146.354 109.591 146.834C110.095 147.314 110.443 147.938 110.635 148.706C110.827 149.462 110.935 150.374 110.959 151.442C110.983 152.186 110.995 152.816 110.995 153.332C110.995 153.836 110.989 154.328 110.977 154.808C110.977 155.288 110.965 155.852 110.941 156.5C110.881 158.192 110.491 159.41 109.771 160.154C109.051 160.886 107.881 161.252 106.261 161.252ZM114.263 161V132.2H122.381V134.36H116.639V145.43H122.021V147.572H116.639V161H114.263ZM129.418 161.252C127.75 161.252 126.55 160.892 125.818 160.172C125.098 159.44 124.72 158.24 124.684 156.572C124.648 154.856 124.618 153.176 124.594 151.532C124.582 149.876 124.576 148.232 124.576 146.6C124.576 144.968 124.582 143.33 124.594 141.686C124.618 140.042 124.648 138.356 124.684 136.628C124.72 134.96 125.098 133.766 125.818 133.046C126.55 132.314 127.75 131.948 129.418 131.948C131.098 131.948 132.298 132.314 133.018 133.046C133.75 133.766 134.128 134.96 134.152 136.628C134.188 138.356 134.212 140.048 134.224 141.704C134.248 143.348 134.26 144.986 134.26 146.618C134.26 148.238 134.248 149.876 134.224 151.532C134.212 153.176 134.188 154.856 134.152 156.572C134.128 158.24 133.75 159.44 133.018 160.172C132.298 160.892 131.098 161.252 129.418 161.252ZM129.418 159.2C130.258 159.2 130.858 159.032 131.218 158.696C131.578 158.348 131.764 157.76 131.776 156.932C131.824 155.42 131.854 153.944 131.866 152.504C131.89 151.052 131.902 149.618 131.902 148.202C131.902 146.774 131.89 145.334 131.866 143.882L127.006 152.468C127.006 153.176 127.012 153.908 127.024 154.664C127.048 155.408 127.066 156.164 127.078 156.932C127.102 157.76 127.294 158.348 127.654 158.696C128.014 159.032 128.602 159.2 129.418 159.2ZM126.952 149.444L131.866 141.038C131.854 140.258 131.842 139.472 131.83 138.68C131.818 137.888 131.8 137.084 131.776 136.268C131.764 135.44 131.572 134.852 131.2 134.504C130.84 134.156 130.246 133.982 129.418 133.982C128.602 133.982 128.014 134.156 127.654 134.504C127.294 134.852 127.102 135.44 127.078 136.268C127.042 137.756 127.012 139.226 126.988 140.678C126.964 142.118 126.946 143.57 126.934 145.034C126.934 146.486 126.94 147.956 126.952 149.444ZM137.783 161V132.2H142.157C143.789 132.2 144.971 132.56 145.703 133.28C146.435 134 146.837 135.194 146.909 136.862C146.945 137.93 146.969 138.944 146.981 139.904C146.993 140.852 146.993 141.776 146.981 142.676C146.969 143.564 146.945 144.452 146.909 145.34C146.873 146.504 146.669 147.434 146.297 148.13C145.925 148.814 145.349 149.3 144.569 149.588L147.467 161H144.911L142.265 150.002H140.159V161H137.783ZM140.159 147.842H142.139C142.955 147.842 143.543 147.65 143.903 147.266C144.275 146.882 144.479 146.276 144.515 145.448C144.551 144.5 144.575 143.54 144.587 142.568C144.599 141.584 144.599 140.606 144.587 139.634C144.575 138.662 144.551 137.702 144.515 136.754C144.479 135.926 144.281 135.32 143.921 134.936C143.561 134.552 142.973 134.36 142.157 134.36H140.159V147.842ZM150.334 161V132.2H152.71V161H150.334ZM156.521 161V132.2H160.589L162.191 141.326L164.639 158.84H165.449L165.035 142.388L164.873 132.2H167.213V161H163.001L161.201 150.668L159.149 134.36H158.285L158.681 150.218L158.825 161H156.521ZM175.595 161.252C174.467 161.252 173.561 161.09 172.877 160.766C172.205 160.442 171.707 159.932 171.383 159.236C171.071 158.54 170.903 157.628 170.879 156.5C170.843 154.856 170.813 153.212 170.789 151.568C170.777 149.924 170.771 148.28 170.771 146.636C170.771 144.992 170.777 143.348 170.789 141.704C170.813 140.06 170.843 138.422 170.879 136.79C170.903 135.626 171.077 134.69 171.401 133.982C171.725 133.274 172.223 132.758 172.895 132.434C173.579 132.11 174.467 131.948 175.559 131.948C177.143 131.948 178.295 132.314 179.015 133.046C179.747 133.778 180.149 134.99 180.221 136.682C180.257 137.606 180.275 138.524 180.275 139.436C180.275 140.336 180.257 141.254 180.221 142.19H177.845C177.881 141.218 177.899 140.24 177.899 139.256C177.899 138.26 177.881 137.282 177.845 136.322C177.809 135.506 177.605 134.912 177.233 134.54C176.873 134.168 176.315 133.982 175.559 133.982C174.779 133.982 174.203 134.168 173.831 134.54C173.471 134.912 173.279 135.506 173.255 136.322C173.219 138.05 173.189 139.772 173.165 141.488C173.153 143.192 173.147 144.896 173.147 146.6C173.147 148.292 173.153 149.99 173.165 151.694C173.189 153.398 173.219 155.12 173.255 156.86C173.279 157.676 173.471 158.27 173.831 158.642C174.203 159.014 174.791 159.2 175.595 159.2C176.387 159.2 176.981 159.014 177.377 158.642C177.785 158.27 178.001 157.676 178.025 156.86C178.037 156.212 178.043 155.564 178.043 154.916C178.055 154.256 178.055 153.602 178.043 152.954C178.043 152.294 178.037 151.646 178.025 151.01H175.631V148.868H180.365C180.389 149.792 180.395 150.878 180.383 152.126C180.383 153.362 180.371 154.82 180.347 156.5C180.287 158.192 179.885 159.41 179.141 160.154C178.409 160.886 177.227 161.252 175.595 161.252ZM26.21 204.252C24.554 204.252 23.36 203.886 22.628 203.154C21.908 202.41 21.512 201.192 21.44 199.5C21.428 198.756 21.422 198.078 21.422 197.466C21.422 196.854 21.428 196.242 21.44 195.63C21.452 195.006 21.47 194.322 21.494 193.578H23.78C23.732 194.646 23.708 195.708 23.708 196.764C23.708 197.82 23.732 198.852 23.78 199.86C23.816 200.676 24.02 201.27 24.392 201.642C24.764 202.014 25.364 202.2 26.192 202.2C26.984 202.2 27.554 202.014 27.902 201.642C28.25 201.27 28.448 200.676 28.496 199.86C28.532 199.188 28.556 198.588 28.568 198.06C28.58 197.52 28.58 196.974 28.568 196.422C28.556 195.858 28.532 195.198 28.496 194.442C28.472 193.554 28.346 192.81 28.118 192.21C27.902 191.598 27.446 191.202 26.75 191.022L24.878 190.536C23.954 190.308 23.246 189.966 22.754 189.51C22.262 189.042 21.92 188.43 21.728 187.674C21.548 186.918 21.44 185.988 21.404 184.884C21.392 184.104 21.386 183.252 21.386 182.328C21.398 181.404 21.41 180.51 21.422 179.646C21.458 178.53 21.632 177.63 21.944 176.946C22.256 176.25 22.754 175.746 23.438 175.434C24.134 175.11 25.052 174.948 26.192 174.948C27.776 174.948 28.922 175.314 29.63 176.046C30.338 176.778 30.722 177.99 30.782 179.682C30.806 180.342 30.812 181.158 30.8 182.13C30.8 183.09 30.782 184.11 30.746 185.19H28.442C28.478 184.206 28.496 183.228 28.496 182.256C28.508 181.272 28.496 180.294 28.46 179.322C28.436 178.506 28.238 177.912 27.866 177.54C27.506 177.168 26.936 176.982 26.156 176.982C25.34 176.982 24.758 177.168 24.41 177.54C24.062 177.912 23.864 178.506 23.816 179.322C23.768 180.234 23.744 181.158 23.744 182.094C23.756 183.018 23.78 183.948 23.816 184.884C23.84 185.952 23.966 186.756 24.194 187.296C24.422 187.836 24.896 188.19 25.616 188.358L27.38 188.79C28.328 189.006 29.048 189.354 29.54 189.834C30.044 190.314 30.392 190.938 30.584 191.706C30.776 192.462 30.884 193.374 30.908 194.442C30.932 195.186 30.944 195.816 30.944 196.332C30.944 196.836 30.938 197.328 30.926 197.808C30.926 198.288 30.914 198.852 30.89 199.5C30.83 201.192 30.44 202.41 29.72 203.154C29 203.886 27.83 204.252 26.21 204.252ZM34.2127 204V175.2H42.3307V177.36H36.5887V188.43H41.9707V190.572H36.5887V201.84H42.3307V204H34.2127ZM49.648 204.252C47.98 204.252 46.78 203.892 46.048 203.172C45.328 202.44 44.95 201.24 44.914 199.572C44.878 197.856 44.848 196.176 44.824 194.532C44.812 192.876 44.806 191.232 44.806 189.6C44.806 187.968 44.812 186.33 44.824 184.686C44.848 183.042 44.878 181.356 44.914 179.628C44.95 177.96 45.328 176.766 46.048 176.046C46.78 175.314 47.98 174.948 49.648 174.948C51.328 174.948 52.528 175.314 53.248 176.046C53.98 176.766 54.358 177.96 54.382 179.628C54.418 181.356 54.442 183.048 54.454 184.704C54.478 186.348 54.49 187.986 54.49 189.618C54.49 191.238 54.478 192.876 54.454 194.532C54.442 196.176 54.418 197.856 54.382 199.572C54.358 201.24 53.98 202.44 53.248 203.172C52.528 203.892 51.328 204.252 49.648 204.252ZM49.648 202.2C50.488 202.2 51.088 202.032 51.448 201.696C51.808 201.348 51.994 200.76 52.006 199.932C52.054 198.168 52.084 196.422 52.096 194.694C52.12 192.954 52.132 191.232 52.132 189.528C52.132 187.812 52.12 186.102 52.096 184.398C52.072 182.682 52.042 180.972 52.006 179.268C51.994 178.44 51.802 177.852 51.43 177.504C51.07 177.156 50.476 176.982 49.648 176.982C48.832 176.982 48.244 177.156 47.884 177.504C47.524 177.852 47.332 178.44 47.308 179.268C47.26 180.972 47.224 182.682 47.2 184.398C47.176 186.102 47.164 187.812 47.164 189.528C47.176 191.232 47.194 192.954 47.218 194.694C47.242 196.422 47.272 198.168 47.308 199.932C47.332 200.76 47.524 201.348 47.884 201.696C48.244 202.032 48.832 202.2 49.648 202.2ZM21.908 247V218.2H26.282C27.914 218.2 29.096 218.56 29.828 219.28C30.56 220 30.962 221.194 31.034 222.862C31.07 223.93 31.094 224.944 31.106 225.904C31.118 226.852 31.118 227.776 31.106 228.676C31.094 229.564 31.07 230.452 31.034 231.34C30.998 232.504 30.794 233.434 30.422 234.13C30.05 234.814 29.474 235.3 28.694 235.588L31.592 247H29.036L26.39 236.002H24.284V247H21.908ZM24.284 233.842H26.264C27.08 233.842 27.668 233.65 28.028 233.266C28.4 232.882 28.604 232.276 28.64 231.448C28.676 230.5 28.7 229.54 28.712 228.568C28.724 227.584 28.724 226.606 28.712 225.634C28.7 224.662 28.676 223.702 28.64 222.754C28.604 221.926 28.406 221.32 28.046 220.936C27.686 220.552 27.098 220.36 26.282 220.36H24.284V233.842ZM39.0308 247.252C37.3628 247.252 36.1628 246.892 35.4308 246.172C34.7108 245.44 34.3328 244.24 34.2968 242.572C34.2608 240.856 34.2308 239.176 34.2068 237.532C34.1948 235.876 34.1888 234.232 34.1888 232.6C34.1888 230.968 34.1948 229.33 34.2068 227.686C34.2308 226.042 34.2608 224.356 34.2968 222.628C34.3328 220.96 34.7108 219.766 35.4308 219.046C36.1628 218.314 37.3628 217.948 39.0308 217.948C40.7108 217.948 41.9108 218.314 42.6308 219.046C43.3628 219.766 43.7408 220.96 43.7648 222.628C43.8008 224.356 43.8248 226.048 43.8368 227.704C43.8608 229.348 43.8728 230.986 43.8728 232.618C43.8728 234.238 43.8608 235.876 43.8368 237.532C43.8248 239.176 43.8008 240.856 43.7648 242.572C43.7408 244.24 43.3628 245.44 42.6308 246.172C41.9108 246.892 40.7108 247.252 39.0308 247.252ZM39.0308 245.2C39.8708 245.2 40.4708 245.032 40.8308 244.696C41.1908 244.348 41.3768 243.76 41.3888 242.932C41.4368 241.168 41.4668 239.422 41.4788 237.694C41.5028 235.954 41.5148 234.232 41.5148 232.528C41.5148 230.812 41.5028 229.102 41.4788 227.398C41.4548 225.682 41.4248 223.972 41.3888 222.268C41.3768 221.44 41.1848 220.852 40.8128 220.504C40.4528 220.156 39.8588 219.982 39.0308 219.982C38.2148 219.982 37.6268 220.156 37.2668 220.504C36.9068 220.852 36.7148 221.44 36.6908 222.268C36.6428 223.972 36.6068 225.682 36.5828 227.398C36.5588 229.102 36.5468 230.812 36.5468 232.528C36.5588 234.232 36.5768 235.954 36.6008 237.694C36.6248 239.422 36.6548 241.168 36.6908 242.932C36.7148 243.76 36.9068 244.348 37.2668 244.696C37.6268 245.032 38.2148 245.2 39.0308 245.2ZM47.3963 247V218.2H49.7723V247H47.3963Z" fill="white"/>
<path d="M18.544 113V74.6H21.712V113H18.544ZM26.794 113V74.6H32.218L34.354 86.768L37.618 110.12H38.698L38.146 88.184L37.93 74.6H41.05V113H35.434L33.034 99.224L30.298 77.48H29.146L29.674 98.624L29.866 113H26.794ZM46.1534 113V74.6H56.9774V77.48H49.3214V92.24H56.4974V95.096H49.3214V113H46.1534ZM60.3096 113V74.6H63.4776V110.12H71.1576V113H60.3096ZM80.0886 113.336C77.8806 113.336 76.2966 112.856 75.3366 111.896C74.3766 110.92 73.8806 109.32 73.8486 107.096C73.7846 101.688 73.7526 96.272 73.7526 90.848C73.7526 85.424 73.7846 80.008 73.8486 74.6H77.0166C76.9846 78.2 76.9526 81.856 76.9206 85.568C76.9046 89.264 76.9046 92.96 76.9206 96.656C76.9366 100.336 76.9606 103.976 76.9926 107.576C76.9926 108.632 77.2486 109.4 77.7606 109.88C78.2726 110.36 79.0486 110.6 80.0886 110.6C81.1606 110.6 81.9366 110.36 82.4166 109.88C82.9126 109.4 83.1606 108.632 83.1606 107.576C83.1926 103.976 83.2166 100.336 83.2326 96.656C83.2486 92.96 83.2486 89.264 83.2326 85.568C83.2326 81.856 83.2086 78.2 83.1606 74.6H86.3526C86.4166 80.008 86.4486 85.424 86.4486 90.848C86.4486 96.272 86.4166 101.688 86.3526 107.096C86.3206 109.32 85.8246 110.92 84.8646 111.896C83.9046 112.856 82.3126 113.336 80.0886 113.336ZM91.0596 113V74.6H101.884V77.48H94.2276V92.24H101.404V95.096H94.2276V110.12H101.884V113H91.0596ZM105.544 113V74.6H110.968L113.104 86.768L116.368 110.12H117.448L116.896 88.184L116.68 74.6H119.8V113H114.184L111.784 99.224L109.048 77.48H107.896L108.424 98.624L108.616 113H105.544ZM130.639 113.336C128.431 113.336 126.839 112.848 125.863 111.872C124.903 110.88 124.375 109.256 124.279 107C124.263 106.008 124.255 105.104 124.255 104.288C124.255 103.472 124.263 102.656 124.279 101.84C124.295 101.008 124.319 100.096 124.351 99.104H127.399C127.335 100.528 127.303 101.944 127.303 103.352C127.303 104.76 127.335 106.136 127.399 107.48C127.447 108.568 127.719 109.36 128.215 109.856C128.711 110.352 129.511 110.6 130.615 110.6C131.671 110.6 132.431 110.352 132.895 109.856C133.359 109.36 133.623 108.568 133.687 107.48C133.735 106.584 133.767 105.784 133.783 105.08C133.799 104.36 133.799 103.632 133.783 102.896C133.767 102.144 133.735 101.264 133.687 100.256C133.655 99.072 133.487 98.08 133.183 97.28C132.895 96.464 132.287 95.936 131.359 95.696L128.863 95.048C127.631 94.744 126.687 94.288 126.031 93.68C125.375 93.056 124.919 92.24 124.663 91.232C124.423 90.224 124.279 88.984 124.231 87.512C124.215 86.472 124.207 85.336 124.207 84.104C124.223 82.872 124.239 81.68 124.255 80.528C124.303 79.04 124.535 77.84 124.951 76.928C125.367 76 126.031 75.328 126.943 74.912C127.871 74.48 129.095 74.264 130.615 74.264C132.727 74.264 134.255 74.752 135.199 75.728C136.143 76.704 136.655 78.32 136.735 80.576C136.767 81.456 136.775 82.544 136.759 83.84C136.759 85.12 136.735 86.48 136.687 87.92H133.615C133.663 86.608 133.687 85.304 133.687 84.008C133.703 82.696 133.687 81.392 133.639 80.096C133.607 79.008 133.343 78.216 132.847 77.72C132.367 77.224 131.607 76.976 130.567 76.976C129.479 76.976 128.703 77.224 128.239 77.72C127.775 78.216 127.511 79.008 127.447 80.096C127.383 81.312 127.351 82.544 127.351 83.792C127.367 85.024 127.399 86.264 127.447 87.512C127.479 88.936 127.647 90.008 127.951 90.728C128.255 91.448 128.887 91.92 129.847 92.144L132.199 92.72C133.463 93.008 134.423 93.472 135.079 94.112C135.751 94.752 136.215 95.584 136.471 96.608C136.727 97.616 136.871 98.832 136.903 100.256C136.935 101.248 136.951 102.088 136.951 102.776C136.951 103.448 136.943 104.104 136.927 104.744C136.927 105.384 136.911 106.136 136.879 107C136.799 109.256 136.279 110.88 135.319 111.872C134.359 112.848 132.799 113.336 130.639 113.336ZM141.31 113V74.6H152.134V77.48H144.478V92.24H151.654V95.096H144.478V110.12H152.134V113H141.31ZM155.794 113V74.6H161.626C163.802 74.6 165.378 75.08 166.354 76.04C167.33 77 167.866 78.592 167.962 80.816C168.01 82.24 168.042 83.592 168.058 84.872C168.074 86.136 168.074 87.368 168.058 88.568C168.042 89.752 168.01 90.936 167.962 92.12C167.914 93.672 167.642 94.912 167.146 95.84C166.65 96.752 165.882 97.4 164.842 97.784L168.706 113H165.298L161.77 98.336H158.962V113H155.794ZM158.962 95.456H161.602C162.69 95.456 163.474 95.2 163.954 94.688C164.45 94.176 164.722 93.368 164.77 92.264C164.818 91 164.85 89.72 164.866 88.424C164.882 87.112 164.882 85.808 164.866 84.512C164.85 83.216 164.818 81.936 164.77 80.672C164.722 79.568 164.458 78.76 163.978 78.248C163.498 77.736 162.714 77.48 161.626 77.48H158.962V95.456Z" fill="white"/>
</g>
</svg>
