<svg width="340" height="297" viewBox="0 0 340 297" fill="none" xmlns="http://www.w3.org/2000/svg">
<path d="M128.691 6.82713C119.016 16.6168 128.691 50.0737 128.691 50.0737H142.512V25.167H197.797V50.0737H213C213 50.0737 221.292 15.2183 213 6.82713C204.707 -1.56402 138.366 -2.96253 128.691 6.82713Z" fill="#67AEB3"/>
<mask id="mask0_1_573" style="mask-type:alpha" maskUnits="userSpaceOnUse" x="0" y="55" width="340" height="242">
<rect y="55.9403" width="340" height="240.546" rx="7" fill="#8C5606"/>
</mask>
<g mask="url(#mask0_1_573)">
<rect y="55.9403" width="340" height="240.546" rx="7" fill="#67AEB3"/>
<path d="M12.056 126.001L16.16 87.6007H22.112L26.192 126.001H22.952L21.944 114.865H16.304L15.32 126.001H12.056ZM16.616 111.985H21.632L20.888 103.585L19.808 90.4807H18.464L17.384 103.609L16.616 111.985ZM29.8096 126.001V87.6007H35.2336L37.3696 99.7687L40.6336 123.121H41.7136L41.1616 101.185L40.9456 87.6007H44.0656V126.001H38.4496L36.0496 112.225L33.3136 90.4807H32.1616L32.6896 111.625L32.8816 126.001H29.8096ZM47.681 126.001L51.785 87.6007H57.737L61.817 126.001H58.577L57.569 114.865H51.929L50.945 126.001H47.681ZM52.241 111.985H57.257L56.513 103.585L55.433 90.4807H54.089L53.009 103.609L52.241 111.985ZM65.4346 126.001V87.6007H68.6026V123.121H76.2826V126.001H65.4346ZM80.2389 126.001V115.945V115.897L75.0309 87.6007H78.2949L80.1429 98.4487L81.4389 109.417H82.3029L83.5509 98.4487L85.3989 87.6007H88.7109L83.4549 115.921V115.969V126.001H80.2389ZM97.9831 126.337C95.7751 126.337 94.1831 125.849 93.2071 124.873C92.2471 123.881 91.7191 122.257 91.6231 120.001C91.6071 119.009 91.5991 118.105 91.5991 117.289C91.5991 116.473 91.6071 115.657 91.6231 114.841C91.6391 114.009 91.6631 113.097 91.6951 112.105H94.7431C94.6791 113.529 94.6471 114.945 94.6471 116.353C94.6471 117.761 94.6791 119.137 94.7431 120.481C94.7911 121.569 95.0631 122.361 95.5591 122.857C96.0551 123.353 96.8551 123.601 97.9591 123.601C99.0151 123.601 99.7751 123.353 100.239 122.857C100.703 122.361 100.967 121.569 101.031 120.481C101.079 119.585 101.111 118.785 101.127 118.081C101.143 117.361 101.143 116.633 101.127 115.897C101.111 115.145 101.079 114.265 101.031 113.257C100.999 112.073 100.831 111.081 100.527 110.281C100.239 109.465 99.6311 108.937 98.7031 108.697L96.2071 108.049C94.9751 107.745 94.0311 107.289 93.3751 106.681C92.7191 106.057 92.2631 105.241 92.0071 104.233C91.7671 103.225 91.6231 101.985 91.5751 100.513C91.5591 99.4727 91.5511 98.3367 91.5511 97.1047C91.5671 95.8727 91.5831 94.6807 91.5991 93.5287C91.6471 92.0407 91.8791 90.8407 92.2951 89.9287C92.7111 89.0007 93.3751 88.3287 94.2871 87.9127C95.2151 87.4807 96.4391 87.2647 97.9591 87.2647C100.071 87.2647 101.599 87.7527 102.543 88.7287C103.487 89.7047 103.999 91.3207 104.079 93.5767C104.111 94.4567 104.119 95.5447 104.103 96.8407C104.103 98.1207 104.079 99.4807 104.031 100.921H100.959C101.007 99.6087 101.031 98.3047 101.031 97.0087C101.047 95.6967 101.031 94.3927 100.983 93.0967C100.951 92.0087 100.687 91.2167 100.191 90.7207C99.7111 90.2247 98.9511 89.9767 97.9111 89.9767C96.8231 89.9767 96.0471 90.2247 95.5831 90.7207C95.1191 91.2167 94.8551 92.0087 94.7911 93.0967C94.7271 94.3127 94.6951 95.5447 94.6951 96.7927C94.7111 98.0247 94.7431 99.2647 94.7911 100.513C94.8231 101.937 94.9911 103.009 95.2951 103.729C95.5991 104.449 96.2311 104.921 97.1911 105.145L99.5431 105.721C100.807 106.009 101.767 106.473 102.423 107.113C103.095 107.753 103.559 108.585 103.815 109.609C104.071 110.617 104.215 111.833 104.247 113.257C104.279 114.249 104.295 115.089 104.295 115.777C104.295 116.449 104.287 117.105 104.271 117.745C104.271 118.385 104.255 119.137 104.223 120.001C104.143 122.257 103.623 123.881 102.663 124.873C101.703 125.849 100.143 126.337 97.9831 126.337ZM108.653 126.001V87.6007H119.477V90.4807H111.821V105.241H118.997V108.097H111.821V123.121H119.477V126.001H108.653Z" fill="white"/>
<path d="M14.908 180.016V151.216H19.516C21.172 151.216 22.366 151.588 23.098 152.332C23.842 153.076 24.226 154.3 24.25 156.004C24.286 158.284 24.31 160.456 24.322 162.52C24.334 164.584 24.334 166.648 24.322 168.712C24.31 170.764 24.286 172.93 24.25 175.21C24.226 176.926 23.842 178.156 23.098 178.9C22.354 179.644 21.148 180.016 19.48 180.016H14.908ZM17.284 177.856H19.48C20.308 177.856 20.908 177.664 21.28 177.28C21.652 176.884 21.844 176.272 21.856 175.444C21.892 173.8 21.916 172.162 21.928 170.53C21.94 168.886 21.946 167.248 21.946 165.616C21.946 163.972 21.94 162.334 21.928 160.702C21.916 159.058 21.892 157.414 21.856 155.77C21.844 154.942 21.652 154.336 21.28 153.952C20.908 153.568 20.32 153.376 19.516 153.376H17.284V177.856ZM26.5537 180.016L29.6317 151.216H34.0957L37.1557 180.016H34.7257L33.9697 171.664H29.7397L29.0017 180.016H26.5537ZM29.9737 169.504H33.7357L33.1777 163.204L32.3677 153.376H31.3597L30.5497 163.222L29.9737 169.504ZM40.8637 180.016V153.376H37.1917V151.216H46.9117V153.376H43.2577V180.016H40.8637ZM46.9443 180.016L50.0223 151.216H54.4863L57.5463 180.016H55.1163L54.3603 171.664H50.1303L49.3923 180.016H46.9443ZM50.3643 169.504H54.1263L53.5683 163.204L52.7583 153.376H51.7503L50.9403 163.222L50.3643 169.504ZM60.2596 180.016V151.216H62.6356V180.016H60.2596ZM66.4471 180.016V151.216H70.5151L72.1171 160.342L74.5651 177.856H75.3751L74.9611 161.404L74.7991 151.216H77.1391V180.016H72.9271L71.1271 169.684L69.0751 153.376H68.2111L68.6071 169.234L68.7511 180.016H66.4471ZM80.9666 180.016V151.216H85.5746C87.2306 151.216 88.4246 151.588 89.1566 152.332C89.9006 153.076 90.2846 154.3 90.3086 156.004C90.3446 158.284 90.3686 160.456 90.3806 162.52C90.3926 164.584 90.3926 166.648 90.3806 168.712C90.3686 170.764 90.3446 172.93 90.3086 175.21C90.2846 176.926 89.9006 178.156 89.1566 178.9C88.4126 179.644 87.2066 180.016 85.5386 180.016H80.9666ZM83.3426 177.856H85.5386C86.3666 177.856 86.9666 177.664 87.3386 177.28C87.7106 176.884 87.9026 176.272 87.9146 175.444C87.9506 173.8 87.9746 172.162 87.9866 170.53C87.9986 168.886 88.0046 167.248 88.0046 165.616C88.0046 163.972 87.9986 162.334 87.9866 160.702C87.9746 159.058 87.9506 157.414 87.9146 155.77C87.9026 154.942 87.7106 154.336 87.3386 153.952C86.9666 153.568 86.3786 153.376 85.5746 153.376H83.3426V177.856ZM98.2413 180.268C96.5853 180.268 95.3913 179.902 94.6593 179.17C93.9393 178.426 93.5433 177.208 93.4713 175.516C93.4593 174.772 93.4533 174.094 93.4533 173.482C93.4533 172.87 93.4593 172.258 93.4713 171.646C93.4833 171.022 93.5013 170.338 93.5253 169.594H95.8113C95.7633 170.662 95.7393 171.724 95.7393 172.78C95.7393 173.836 95.7633 174.868 95.8113 175.876C95.8473 176.692 96.0513 177.286 96.4233 177.658C96.7953 178.03 97.3953 178.216 98.2233 178.216C99.0153 178.216 99.5853 178.03 99.9333 177.658C100.281 177.286 100.479 176.692 100.527 175.876C100.563 175.204 100.587 174.604 100.599 174.076C100.611 173.536 100.611 172.99 100.599 172.438C100.587 171.874 100.563 171.214 100.527 170.458C100.503 169.57 100.377 168.826 100.149 168.226C99.9333 167.614 99.4773 167.218 98.7813 167.038L96.9093 166.552C95.9853 166.324 95.2773 165.982 94.7853 165.526C94.2933 165.058 93.9513 164.446 93.7593 163.69C93.5793 162.934 93.4713 162.004 93.4353 160.9C93.4233 160.12 93.4173 159.268 93.4173 158.344C93.4293 157.42 93.4413 156.526 93.4533 155.662C93.4893 154.546 93.6633 153.646 93.9753 152.962C94.2873 152.266 94.7853 151.762 95.4693 151.45C96.1653 151.126 97.0833 150.964 98.2233 150.964C99.8073 150.964 100.953 151.33 101.661 152.062C102.369 152.794 102.753 154.006 102.813 155.698C102.837 156.358 102.843 157.174 102.831 158.146C102.831 159.106 102.813 160.126 102.777 161.206H100.473C100.509 160.222 100.527 159.244 100.527 158.272C100.539 157.288 100.527 156.31 100.491 155.338C100.467 154.522 100.269 153.928 99.8973 153.556C99.5373 153.184 98.9673 152.998 98.1873 152.998C97.3713 152.998 96.7893 153.184 96.4413 153.556C96.0933 153.928 95.8953 154.522 95.8473 155.338C95.7993 156.25 95.7753 157.174 95.7753 158.11C95.7873 159.034 95.8113 159.964 95.8473 160.9C95.8713 161.968 95.9973 162.772 96.2253 163.312C96.4533 163.852 96.9273 164.206 97.6473 164.374L99.4113 164.806C100.359 165.022 101.079 165.37 101.571 165.85C102.075 166.33 102.423 166.954 102.615 167.722C102.807 168.478 102.915 169.39 102.939 170.458C102.963 171.202 102.975 171.832 102.975 172.348C102.975 172.852 102.969 173.344 102.957 173.824C102.957 174.304 102.945 174.868 102.921 175.516C102.861 177.208 102.471 178.426 101.751 179.17C101.031 179.902 99.8613 180.268 98.2413 180.268ZM105.128 180.016L108.206 151.216H112.67L115.73 180.016H113.3L112.544 171.664H108.314L107.576 180.016H105.128ZM108.548 169.504H112.31L111.752 163.204L110.942 153.376H109.934L109.124 163.222L108.548 169.504ZM118.443 180.016V151.216H120.819V177.856H126.579V180.016H118.443ZM128.849 180.016V151.216H131.225V180.016H128.849ZM135.037 180.016V151.216H139.105L140.707 160.342L143.155 177.856H143.965L143.551 161.404L143.389 151.216H145.729V180.016H141.517L139.717 169.684L137.665 153.376H136.801L137.197 169.234L137.341 180.016H135.037ZM154.11 180.268C152.982 180.268 152.076 180.106 151.392 179.782C150.72 179.458 150.222 178.948 149.898 178.252C149.586 177.556 149.418 176.644 149.394 175.516C149.358 173.872 149.328 172.228 149.304 170.584C149.292 168.94 149.286 167.296 149.286 165.652C149.286 164.008 149.292 162.364 149.304 160.72C149.328 159.076 149.358 157.438 149.394 155.806C149.418 154.642 149.592 153.706 149.916 152.998C150.24 152.29 150.738 151.774 151.41 151.45C152.094 151.126 152.982 150.964 154.074 150.964C155.658 150.964 156.81 151.33 157.53 152.062C158.262 152.794 158.664 154.006 158.736 155.698C158.772 156.622 158.79 157.54 158.79 158.452C158.79 159.352 158.772 160.27 158.736 161.206H156.36C156.396 160.234 156.414 159.256 156.414 158.272C156.414 157.276 156.396 156.298 156.36 155.338C156.324 154.522 156.12 153.928 155.748 153.556C155.388 153.184 154.83 152.998 154.074 152.998C153.294 152.998 152.718 153.184 152.346 153.556C151.986 153.928 151.794 154.522 151.77 155.338C151.734 157.066 151.704 158.788 151.68 160.504C151.668 162.208 151.662 163.912 151.662 165.616C151.662 167.308 151.668 169.006 151.68 170.71C151.704 172.414 151.734 174.136 151.77 175.876C151.794 176.692 151.986 177.286 152.346 177.658C152.718 178.03 153.306 178.216 154.11 178.216C154.902 178.216 155.496 178.03 155.892 177.658C156.3 177.286 156.516 176.692 156.54 175.876C156.552 175.228 156.558 174.58 156.558 173.932C156.57 173.272 156.57 172.618 156.558 171.97C156.558 171.31 156.552 170.662 156.54 170.026H154.146V167.884H158.88C158.904 168.808 158.91 169.894 158.898 171.142C158.898 172.378 158.886 173.836 158.862 175.516C158.802 177.208 158.4 178.426 157.656 179.17C156.924 179.902 155.742 180.268 154.11 180.268ZM14.908 223.016V194.216H19.282L21.01 205.988L22.162 220.73H22.846L23.962 205.988L25.726 194.216H30.1V223.016H27.688V214.628L28.12 196.376H27.31L25.384 214.736L24.088 222.89H20.884L19.624 214.736L17.698 196.376H16.924L17.302 214.628V223.016H14.908ZM32.8115 223.016L35.8895 194.216H40.3535L43.4135 223.016H40.9835L40.2275 214.664H35.9975L35.2595 223.016H32.8115ZM36.2315 212.504H39.9935L39.4355 206.204L38.6255 196.376H37.6175L36.8075 206.222L36.2315 212.504ZM46.1268 223.016V194.216H50.5008C52.1328 194.216 53.3148 194.576 54.0468 195.296C54.7788 196.016 55.1808 197.21 55.2528 198.878C55.2888 199.946 55.3128 200.96 55.3248 201.92C55.3368 202.868 55.3368 203.792 55.3248 204.692C55.3128 205.58 55.2888 206.468 55.2528 207.356C55.2168 208.52 55.0128 209.45 54.6408 210.146C54.2688 210.83 53.6928 211.316 52.9128 211.604L55.8108 223.016H53.2548L50.6088 212.018H48.5028V223.016H46.1268ZM48.5028 209.858H50.4828C51.2988 209.858 51.8868 209.666 52.2468 209.282C52.6188 208.898 52.8228 208.292 52.8588 207.464C52.8948 206.516 52.9188 205.556 52.9308 204.584C52.9428 203.6 52.9428 202.622 52.9308 201.65C52.9188 200.678 52.8948 199.718 52.8588 198.77C52.8228 197.942 52.6248 197.336 52.2648 196.952C51.9048 196.568 51.3168 196.376 50.5008 196.376H48.5028V209.858ZM58.6775 223.016V194.216H61.1975L61.1615 201.038L60.8195 208.382H61.4315L63.7175 200.39L65.7155 194.216H68.3255L64.0415 207.104L68.7755 223.016H66.3095L62.5115 209.966L61.1075 213.728V223.016H58.6775ZM71.1228 223.016V194.216H79.2408V196.376H73.4988V207.446H78.8808V209.588H73.4988V220.856H79.2408V223.016H71.1228ZM81.9861 223.016V194.216H86.5941C88.2501 194.216 89.4441 194.588 90.1761 195.332C90.9201 196.076 91.3041 197.3 91.3281 199.004C91.3641 201.284 91.3881 203.456 91.4001 205.52C91.4121 207.584 91.4121 209.648 91.4001 211.712C91.3881 213.764 91.3641 215.93 91.3281 218.21C91.3041 219.926 90.9201 221.156 90.1761 221.9C89.4321 222.644 88.2261 223.016 86.5581 223.016H81.9861ZM84.3621 220.856H86.5581C87.3861 220.856 87.9861 220.664 88.3581 220.28C88.7301 219.884 88.9221 219.272 88.9341 218.444C88.9701 216.8 88.9941 215.162 89.0061 213.53C89.0181 211.886 89.0241 210.248 89.0241 208.616C89.0241 206.972 89.0181 205.334 89.0061 203.702C88.9941 202.058 88.9701 200.414 88.9341 198.77C88.9221 197.942 88.7301 197.336 88.3581 196.952C87.9861 196.568 87.3981 196.376 86.5941 196.376H84.3621V220.856ZM99.2608 223.268C97.6048 223.268 96.4108 222.902 95.6788 222.17C94.9588 221.426 94.5628 220.208 94.4908 218.516C94.4788 217.772 94.4728 217.094 94.4728 216.482C94.4728 215.87 94.4788 215.258 94.4908 214.646C94.5028 214.022 94.5208 213.338 94.5448 212.594H96.8308C96.7828 213.662 96.7588 214.724 96.7588 215.78C96.7588 216.836 96.7828 217.868 96.8308 218.876C96.8668 219.692 97.0708 220.286 97.4428 220.658C97.8148 221.03 98.4148 221.216 99.2428 221.216C100.035 221.216 100.605 221.03 100.953 220.658C101.301 220.286 101.499 219.692 101.547 218.876C101.583 218.204 101.607 217.604 101.619 217.076C101.631 216.536 101.631 215.99 101.619 215.438C101.607 214.874 101.583 214.214 101.547 213.458C101.523 212.57 101.397 211.826 101.169 211.226C100.953 210.614 100.497 210.218 99.8008 210.038L97.9288 209.552C97.0048 209.324 96.2968 208.982 95.8048 208.526C95.3128 208.058 94.9708 207.446 94.7788 206.69C94.5988 205.934 94.4908 205.004 94.4548 203.9C94.4428 203.12 94.4368 202.268 94.4368 201.344C94.4488 200.42 94.4608 199.526 94.4728 198.662C94.5088 197.546 94.6828 196.646 94.9948 195.962C95.3068 195.266 95.8048 194.762 96.4888 194.45C97.1848 194.126 98.1028 193.964 99.2428 193.964C100.827 193.964 101.973 194.33 102.681 195.062C103.389 195.794 103.773 197.006 103.833 198.698C103.857 199.358 103.863 200.174 103.851 201.146C103.851 202.106 103.833 203.126 103.797 204.206H101.493C101.529 203.222 101.547 202.244 101.547 201.272C101.559 200.288 101.547 199.31 101.511 198.338C101.487 197.522 101.289 196.928 100.917 196.556C100.557 196.184 99.9868 195.998 99.2068 195.998C98.3908 195.998 97.8088 196.184 97.4608 196.556C97.1128 196.928 96.9148 197.522 96.8668 198.338C96.8188 199.25 96.7948 200.174 96.7948 201.11C96.8068 202.034 96.8308 202.964 96.8668 203.9C96.8908 204.968 97.0168 205.772 97.2448 206.312C97.4728 206.852 97.9468 207.206 98.6668 207.374L100.431 207.806C101.379 208.022 102.099 208.37 102.591 208.85C103.095 209.33 103.443 209.954 103.635 210.722C103.827 211.478 103.935 212.39 103.959 213.458C103.983 214.202 103.995 214.832 103.995 215.348C103.995 215.852 103.989 216.344 103.977 216.824C103.977 217.304 103.965 217.868 103.941 218.516C103.881 220.208 103.491 221.426 102.771 222.17C102.051 222.902 100.881 223.268 99.2608 223.268ZM107.263 223.016V194.216H111.637C113.269 194.216 114.451 194.576 115.183 195.296C115.915 196.016 116.317 197.21 116.389 198.878C116.437 200.474 116.461 201.908 116.461 203.18C116.461 204.452 116.437 205.76 116.389 207.104C116.317 208.76 115.909 209.948 115.165 210.668C114.433 211.388 113.251 211.748 111.619 211.748H109.639V223.016H107.263ZM109.639 209.606H111.619C112.435 209.606 113.023 209.414 113.383 209.03C113.755 208.646 113.959 208.034 113.995 207.194C114.031 206.246 114.055 205.31 114.067 204.386C114.079 203.45 114.079 202.52 114.067 201.596C114.055 200.66 114.031 199.718 113.995 198.77C113.959 197.942 113.761 197.336 113.401 196.952C113.041 196.568 112.453 196.376 111.637 196.376H109.639V209.606ZM123.929 223.268C122.261 223.268 121.061 222.908 120.329 222.188C119.609 221.456 119.231 220.256 119.195 218.588C119.159 216.872 119.129 215.192 119.105 213.548C119.093 211.892 119.087 210.248 119.087 208.616C119.087 206.984 119.093 205.346 119.105 203.702C119.129 202.058 119.159 200.372 119.195 198.644C119.231 196.976 119.609 195.782 120.329 195.062C121.061 194.33 122.261 193.964 123.929 193.964C125.609 193.964 126.809 194.33 127.529 195.062C128.261 195.782 128.639 196.976 128.663 198.644C128.699 200.372 128.723 202.064 128.735 203.72C128.759 205.364 128.771 207.002 128.771 208.634C128.771 210.254 128.759 211.892 128.735 213.548C128.723 215.192 128.699 216.872 128.663 218.588C128.639 220.256 128.261 221.456 127.529 222.188C126.809 222.908 125.609 223.268 123.929 223.268ZM123.929 221.216C124.769 221.216 125.369 221.048 125.729 220.712C126.089 220.364 126.275 219.776 126.287 218.948C126.335 217.184 126.365 215.438 126.377 213.71C126.401 211.97 126.413 210.248 126.413 208.544C126.413 206.828 126.401 205.118 126.377 203.414C126.353 201.698 126.323 199.988 126.287 198.284C126.275 197.456 126.083 196.868 125.711 196.52C125.351 196.172 124.757 195.998 123.929 195.998C123.113 195.998 122.525 196.172 122.165 196.52C121.805 196.868 121.613 197.456 121.589 198.284C121.541 199.988 121.505 201.698 121.481 203.414C121.457 205.118 121.445 206.828 121.445 208.544C121.457 210.248 121.475 211.97 121.499 213.71C121.523 215.438 121.553 217.184 121.589 218.948C121.613 219.776 121.805 220.364 122.165 220.712C122.525 221.048 123.113 221.216 123.929 221.216ZM136.597 223.268C134.941 223.268 133.747 222.902 133.015 222.17C132.295 221.426 131.899 220.208 131.827 218.516C131.815 217.772 131.809 217.094 131.809 216.482C131.809 215.87 131.815 215.258 131.827 214.646C131.839 214.022 131.857 213.338 131.881 212.594H134.167C134.119 213.662 134.095 214.724 134.095 215.78C134.095 216.836 134.119 217.868 134.167 218.876C134.203 219.692 134.407 220.286 134.779 220.658C135.151 221.03 135.751 221.216 136.579 221.216C137.371 221.216 137.941 221.03 138.289 220.658C138.637 220.286 138.835 219.692 138.883 218.876C138.919 218.204 138.943 217.604 138.955 217.076C138.967 216.536 138.967 215.99 138.955 215.438C138.943 214.874 138.919 214.214 138.883 213.458C138.859 212.57 138.733 211.826 138.505 211.226C138.289 210.614 137.833 210.218 137.137 210.038L135.265 209.552C134.341 209.324 133.633 208.982 133.141 208.526C132.649 208.058 132.307 207.446 132.115 206.69C131.935 205.934 131.827 205.004 131.791 203.9C131.779 203.12 131.773 202.268 131.773 201.344C131.785 200.42 131.797 199.526 131.809 198.662C131.845 197.546 132.019 196.646 132.331 195.962C132.643 195.266 133.141 194.762 133.825 194.45C134.521 194.126 135.439 193.964 136.579 193.964C138.163 193.964 139.309 194.33 140.017 195.062C140.725 195.794 141.109 197.006 141.169 198.698C141.193 199.358 141.199 200.174 141.187 201.146C141.187 202.106 141.169 203.126 141.133 204.206H138.829C138.865 203.222 138.883 202.244 138.883 201.272C138.895 200.288 138.883 199.31 138.847 198.338C138.823 197.522 138.625 196.928 138.253 196.556C137.893 196.184 137.323 195.998 136.543 195.998C135.727 195.998 135.145 196.184 134.797 196.556C134.449 196.928 134.251 197.522 134.203 198.338C134.155 199.25 134.131 200.174 134.131 201.11C134.143 202.034 134.167 202.964 134.203 203.9C134.227 204.968 134.353 205.772 134.581 206.312C134.809 206.852 135.283 207.206 136.003 207.374L137.767 207.806C138.715 208.022 139.435 208.37 139.927 208.85C140.431 209.33 140.779 209.954 140.971 210.722C141.163 211.478 141.271 212.39 141.295 213.458C141.319 214.202 141.331 214.832 141.331 215.348C141.331 215.852 141.325 216.344 141.313 216.824C141.313 217.304 141.301 217.868 141.277 218.516C141.217 220.208 140.827 221.426 140.107 222.17C139.387 222.902 138.217 223.268 136.597 223.268ZM144.599 223.016V194.216H146.975V223.016H144.599ZM152.731 223.016V196.376H149.059V194.216H158.779V196.376H155.125V223.016H152.731ZM160.877 223.016V194.216H163.253V223.016H160.877ZM171.636 223.268C169.968 223.268 168.768 222.908 168.036 222.188C167.316 221.456 166.938 220.256 166.902 218.588C166.866 216.872 166.836 215.192 166.812 213.548C166.8 211.892 166.794 210.248 166.794 208.616C166.794 206.984 166.8 205.346 166.812 203.702C166.836 202.058 166.866 200.372 166.902 198.644C166.938 196.976 167.316 195.782 168.036 195.062C168.768 194.33 169.968 193.964 171.636 193.964C173.316 193.964 174.516 194.33 175.236 195.062C175.968 195.782 176.346 196.976 176.37 198.644C176.406 200.372 176.43 202.064 176.442 203.72C176.466 205.364 176.478 207.002 176.478 208.634C176.478 210.254 176.466 211.892 176.442 213.548C176.43 215.192 176.406 216.872 176.37 218.588C176.346 220.256 175.968 221.456 175.236 222.188C174.516 222.908 173.316 223.268 171.636 223.268ZM171.636 221.216C172.476 221.216 173.076 221.048 173.436 220.712C173.796 220.364 173.982 219.776 173.994 218.948C174.042 217.184 174.072 215.438 174.084 213.71C174.108 211.97 174.12 210.248 174.12 208.544C174.12 206.828 174.108 205.118 174.084 203.414C174.06 201.698 174.03 199.988 173.994 198.284C173.982 197.456 173.79 196.868 173.418 196.52C173.058 196.172 172.464 195.998 171.636 195.998C170.82 195.998 170.232 196.172 169.872 196.52C169.512 196.868 169.32 197.456 169.296 198.284C169.248 199.988 169.212 201.698 169.188 203.414C169.164 205.118 169.152 206.828 169.152 208.544C169.164 210.248 169.182 211.97 169.206 213.71C169.23 215.438 169.26 217.184 169.296 218.948C169.32 219.776 169.512 220.364 169.872 220.712C170.232 221.048 170.82 221.216 171.636 221.216ZM180.002 223.016V194.216H184.07L185.672 203.342L188.12 220.856H188.93L188.516 204.404L188.354 194.216H190.694V223.016H186.482L184.682 212.684L182.63 196.376H181.766L182.162 212.234L182.306 223.016H180.002ZM14.908 266.016V237.216H19.192C20.824 237.216 22.012 237.576 22.756 238.296C23.512 239.016 23.902 240.21 23.926 241.878C23.95 243.078 23.962 244.128 23.962 245.028C23.962 245.928 23.95 246.792 23.926 247.62C23.878 248.628 23.686 249.414 23.35 249.978C23.014 250.542 22.486 250.956 21.766 251.22V251.886C22.51 252.126 23.05 252.534 23.386 253.11C23.734 253.686 23.926 254.478 23.962 255.486C23.986 256.542 23.998 257.52 23.998 258.42C23.998 259.32 23.986 260.298 23.962 261.354C23.902 263.01 23.5 264.204 22.756 264.936C22.024 265.656 20.836 266.016 19.192 266.016H14.908ZM17.284 263.856H19.192C19.996 263.856 20.584 263.652 20.956 263.244C21.34 262.836 21.544 262.2 21.568 261.336C21.604 260.316 21.622 259.356 21.622 258.456C21.622 257.556 21.604 256.596 21.568 255.576C21.544 254.508 21.334 253.746 20.938 253.29C20.554 252.822 19.93 252.588 19.066 252.588H17.284V263.856ZM17.284 250.446H19.156C19.96 250.446 20.554 250.212 20.938 249.744C21.322 249.276 21.52 248.556 21.532 247.584C21.58 246.552 21.604 245.58 21.604 244.668C21.604 243.756 21.58 242.79 21.532 241.77C21.52 240.942 21.322 240.336 20.938 239.952C20.554 239.568 19.972 239.376 19.192 239.376H17.284V250.446ZM27.3885 266.016V237.216H31.7625C33.3945 237.216 34.5765 237.576 35.3085 238.296C36.0405 239.016 36.4425 240.21 36.5145 241.878C36.5505 242.946 36.5745 243.96 36.5865 244.92C36.5985 245.868 36.5985 246.792 36.5865 247.692C36.5745 248.58 36.5505 249.468 36.5145 250.356C36.4785 251.52 36.2745 252.45 35.9025 253.146C35.5305 253.83 34.9545 254.316 34.1745 254.604L37.0725 266.016H34.5165L31.8705 255.018H29.7645V266.016H27.3885ZM29.7645 252.858H31.7445C32.5605 252.858 33.1485 252.666 33.5085 252.282C33.8805 251.898 34.0845 251.292 34.1205 250.464C34.1565 249.516 34.1805 248.556 34.1925 247.584C34.2045 246.6 34.2045 245.622 34.1925 244.65C34.1805 243.678 34.1565 242.718 34.1205 241.77C34.0845 240.942 33.8865 240.336 33.5265 239.952C33.1665 239.568 32.5785 239.376 31.7625 239.376H29.7645V252.858ZM44.3673 266.268C42.7113 266.268 41.5233 265.908 40.8033 265.188C40.0833 264.456 39.7113 263.256 39.6873 261.588C39.6393 257.532 39.6153 253.47 39.6153 249.402C39.6153 245.334 39.6393 241.272 39.6873 237.216H42.0633C42.0393 239.916 42.0153 242.658 41.9913 245.442C41.9793 248.214 41.9793 250.986 41.9913 253.758C42.0033 256.518 42.0213 259.248 42.0453 261.948C42.0453 262.74 42.2373 263.316 42.6213 263.676C43.0053 264.036 43.5873 264.216 44.3673 264.216C45.1713 264.216 45.7533 264.036 46.1133 263.676C46.4853 263.316 46.6713 262.74 46.6713 261.948C46.6953 259.248 46.7133 256.518 46.7253 253.758C46.7373 250.986 46.7373 248.214 46.7253 245.442C46.7253 242.658 46.7073 239.916 46.6713 237.216H49.0653C49.1133 241.272 49.1373 245.334 49.1373 249.402C49.1373 253.47 49.1133 257.532 49.0653 261.588C49.0413 263.256 48.6693 264.456 47.9492 265.188C47.2293 265.908 46.0353 266.268 44.3673 266.268ZM57.1495 266.268C56.0215 266.268 55.1155 266.106 54.4315 265.782C53.7595 265.458 53.2615 264.948 52.9375 264.252C52.6255 263.556 52.4575 262.644 52.4335 261.516C52.3975 259.872 52.3675 258.228 52.3435 256.584C52.3315 254.94 52.3255 253.296 52.3255 251.652C52.3255 250.008 52.3315 248.364 52.3435 246.72C52.3675 245.076 52.3975 243.438 52.4335 241.806C52.4575 240.642 52.6315 239.706 52.9555 238.998C53.2795 238.29 53.7775 237.774 54.4495 237.45C55.1335 237.126 56.0215 236.964 57.1135 236.964C58.6975 236.964 59.8495 237.33 60.5695 238.062C61.3015 238.794 61.7035 240.006 61.7755 241.698C61.8115 242.622 61.8295 243.54 61.8295 244.452C61.8295 245.352 61.8115 246.27 61.7755 247.206H59.3995C59.4355 246.234 59.4535 245.256 59.4535 244.272C59.4535 243.276 59.4355 242.298 59.3995 241.338C59.3635 240.522 59.1595 239.928 58.7875 239.556C58.4275 239.184 57.8695 238.998 57.1135 238.998C56.3335 238.998 55.7575 239.184 55.3855 239.556C55.0255 239.928 54.8335 240.522 54.8095 241.338C54.7735 243.066 54.7435 244.788 54.7195 246.504C54.7075 248.208 54.7015 249.912 54.7015 251.616C54.7015 253.308 54.7075 255.006 54.7195 256.71C54.7435 258.414 54.7735 260.136 54.8095 261.876C54.8335 262.692 55.0255 263.286 55.3855 263.658C55.7575 264.03 56.3455 264.216 57.1495 264.216C57.9415 264.216 58.5355 264.03 58.9315 263.658C59.3395 263.286 59.5555 262.692 59.5795 261.876C59.5915 261.228 59.5975 260.58 59.5975 259.932C59.6095 259.272 59.6095 258.618 59.5975 257.97C59.5975 257.31 59.5915 256.662 59.5795 256.026H57.1855V253.884H61.9195C61.9435 254.808 61.9495 255.894 61.9375 257.142C61.9375 258.378 61.9255 259.836 61.9015 261.516C61.8415 263.208 61.4395 264.426 60.6955 265.17C59.9635 265.902 58.7815 266.268 57.1495 266.268ZM65.1463 266.016V237.216H73.2643V239.376H67.5223V250.446H72.9043V252.588H67.5223V263.856H73.2643V266.016H65.1463ZM76.0096 266.016V237.216H80.3836C82.0156 237.216 83.1976 237.576 83.9296 238.296C84.6616 239.016 85.0636 240.21 85.1356 241.878C85.1716 242.946 85.1956 243.96 85.2076 244.92C85.2196 245.868 85.2196 246.792 85.2076 247.692C85.1956 248.58 85.1716 249.468 85.1356 250.356C85.0996 251.52 84.8956 252.45 84.5236 253.146C84.1516 253.83 83.5756 254.316 82.7956 254.604L85.6936 266.016H83.1376L80.4916 255.018H78.3856V266.016H76.0096ZM78.3856 252.858H80.3656C81.1816 252.858 81.7696 252.666 82.1296 252.282C82.5016 251.898 82.7056 251.292 82.7416 250.464C82.7776 249.516 82.8016 248.556 82.8136 247.584C82.8256 246.6 82.8256 245.622 82.8136 244.65C82.8016 243.678 82.7776 242.718 82.7416 241.77C82.7056 240.942 82.5076 240.336 82.1476 239.952C81.7876 239.568 81.1996 239.376 80.3836 239.376H78.3856V252.858ZM92.9883 266.268C91.3323 266.268 90.1443 265.908 89.4243 265.188C88.7043 264.456 88.3323 263.256 88.3083 261.588C88.2603 257.532 88.2363 253.47 88.2363 249.402C88.2363 245.334 88.2603 241.272 88.3083 237.216H90.6843C90.6603 239.916 90.6363 242.658 90.6123 245.442C90.6003 248.214 90.6003 250.986 90.6123 253.758C90.6243 256.518 90.6423 259.248 90.6663 261.948C90.6663 262.74 90.8583 263.316 91.2423 263.676C91.6263 264.036 92.2083 264.216 92.9883 264.216C93.7923 264.216 94.3743 264.036 94.7343 263.676C95.1063 263.316 95.2923 262.74 95.2923 261.948C95.3163 259.248 95.3343 256.518 95.3463 253.758C95.3583 250.986 95.3583 248.214 95.3463 245.442C95.3463 242.658 95.3283 239.916 95.2923 237.216H97.6863C97.7343 241.272 97.7583 245.334 97.7583 249.402C97.7583 253.47 97.7343 257.532 97.6863 261.588C97.6623 263.256 97.2903 264.456 96.5703 265.188C95.8503 265.908 94.6563 266.268 92.9883 266.268ZM101.217 266.016V237.216H105.285L106.887 246.342L109.335 263.856H110.145L109.731 247.404L109.569 237.216H111.909V266.016H107.697L105.897 255.684L103.845 239.376H102.981L103.377 255.234L103.521 266.016H101.217ZM115.736 266.016V237.216H120.344C122 237.216 123.194 237.588 123.926 238.332C124.67 239.076 125.054 240.3 125.078 242.004C125.114 244.284 125.138 246.456 125.15 248.52C125.162 250.584 125.162 252.648 125.15 254.712C125.138 256.764 125.114 258.93 125.078 261.21C125.054 262.926 124.67 264.156 123.926 264.9C123.182 265.644 121.976 266.016 120.308 266.016H115.736ZM118.112 263.856H120.308C121.136 263.856 121.736 263.664 122.108 263.28C122.48 262.884 122.672 262.272 122.684 261.444C122.72 259.8 122.744 258.162 122.756 256.53C122.768 254.886 122.774 253.248 122.774 251.616C122.774 249.972 122.768 248.334 122.756 246.702C122.744 245.058 122.72 243.414 122.684 241.77C122.672 240.942 122.48 240.336 122.108 239.952C121.736 239.568 121.148 239.376 120.344 239.376H118.112V263.856ZM128.709 266.016V237.216H136.827V239.376H131.085V250.446H136.467V252.588H131.085V263.856H136.827V266.016H128.709ZM139.572 266.016V237.216H143.946C145.578 237.216 146.76 237.576 147.492 238.296C148.224 239.016 148.626 240.21 148.698 241.878C148.734 242.946 148.758 243.96 148.77 244.92C148.782 245.868 148.782 246.792 148.77 247.692C148.758 248.58 148.734 249.468 148.698 250.356C148.662 251.52 148.458 252.45 148.086 253.146C147.714 253.83 147.138 254.316 146.358 254.604L149.256 266.016H146.7L144.054 255.018H141.948V266.016H139.572ZM141.948 252.858H143.928C144.744 252.858 145.332 252.666 145.692 252.282C146.064 251.898 146.268 251.292 146.304 250.464C146.34 249.516 146.364 248.556 146.376 247.584C146.388 246.6 146.388 245.622 146.376 244.65C146.364 243.678 146.34 242.718 146.304 241.77C146.268 240.942 146.07 240.336 145.71 239.952C145.35 239.568 144.762 239.376 143.946 239.376H141.948V252.858ZM156.425 266.268C154.769 266.268 153.575 265.902 152.843 265.17C152.123 264.426 151.727 263.208 151.655 261.516C151.643 260.772 151.637 260.094 151.637 259.482C151.637 258.87 151.643 258.258 151.655 257.646C151.667 257.022 151.685 256.338 151.709 255.594H153.995C153.947 256.662 153.923 257.724 153.923 258.78C153.923 259.836 153.947 260.868 153.995 261.876C154.031 262.692 154.235 263.286 154.607 263.658C154.979 264.03 155.579 264.216 156.407 264.216C157.199 264.216 157.769 264.03 158.117 263.658C158.465 263.286 158.663 262.692 158.711 261.876C158.747 261.204 158.771 260.604 158.783 260.076C158.795 259.536 158.795 258.99 158.783 258.438C158.771 257.874 158.747 257.214 158.711 256.458C158.687 255.57 158.561 254.826 158.333 254.226C158.117 253.614 157.661 253.218 156.965 253.038L155.093 252.552C154.169 252.324 153.461 251.982 152.969 251.526C152.477 251.058 152.135 250.446 151.943 249.69C151.763 248.934 151.655 248.004 151.619 246.9C151.607 246.12 151.601 245.268 151.601 244.344C151.613 243.42 151.625 242.526 151.637 241.662C151.673 240.546 151.847 239.646 152.159 238.962C152.471 238.266 152.969 237.762 153.653 237.45C154.349 237.126 155.267 236.964 156.407 236.964C157.991 236.964 159.137 237.33 159.845 238.062C160.553 238.794 160.937 240.006 160.997 241.698C161.021 242.358 161.027 243.174 161.015 244.146C161.015 245.106 160.997 246.126 160.961 247.206H158.657C158.693 246.222 158.711 245.244 158.711 244.272C158.723 243.288 158.711 242.31 158.675 241.338C158.651 240.522 158.453 239.928 158.081 239.556C157.721 239.184 157.151 238.998 156.371 238.998C155.555 238.998 154.973 239.184 154.625 239.556C154.277 239.928 154.079 240.522 154.031 241.338C153.983 242.25 153.959 243.174 153.959 244.11C153.971 245.034 153.995 245.964 154.031 246.9C154.055 247.968 154.181 248.772 154.409 249.312C154.637 249.852 155.111 250.206 155.831 250.374L157.595 250.806C158.543 251.022 159.263 251.37 159.755 251.85C160.259 252.33 160.607 252.954 160.799 253.722C160.991 254.478 161.099 255.39 161.123 256.458C161.147 257.202 161.159 257.832 161.159 258.348C161.159 258.852 161.153 259.344 161.141 259.824C161.141 260.304 161.129 260.868 161.105 261.516C161.045 263.208 160.655 264.426 159.935 265.17C159.215 265.902 158.045 266.268 156.425 266.268ZM169 266.268C167.332 266.268 166.132 265.908 165.4 265.188C164.68 264.456 164.302 263.256 164.266 261.588C164.23 259.872 164.2 258.192 164.176 256.548C164.164 254.892 164.158 253.248 164.158 251.616C164.158 249.984 164.164 248.346 164.176 246.702C164.2 245.058 164.23 243.372 164.266 241.644C164.302 239.976 164.68 238.782 165.4 238.062C166.132 237.33 167.332 236.964 169 236.964C170.68 236.964 171.88 237.33 172.6 238.062C173.332 238.782 173.71 239.976 173.734 241.644C173.77 243.372 173.794 245.064 173.806 246.72C173.83 248.364 173.842 250.002 173.842 251.634C173.842 253.254 173.83 254.892 173.806 256.548C173.794 258.192 173.77 259.872 173.734 261.588C173.71 263.256 173.332 264.456 172.6 265.188C171.88 265.908 170.68 266.268 169 266.268ZM169 264.216C169.84 264.216 170.44 264.048 170.8 263.712C171.16 263.364 171.346 262.776 171.358 261.948C171.406 260.436 171.436 258.96 171.448 257.52C171.472 256.068 171.484 254.634 171.484 253.218C171.484 251.79 171.472 250.35 171.448 248.898L166.588 257.484C166.588 258.192 166.594 258.924 166.606 259.68C166.63 260.424 166.648 261.18 166.66 261.948C166.684 262.776 166.876 263.364 167.236 263.712C167.596 264.048 168.184 264.216 169 264.216ZM166.534 254.46L171.448 246.054C171.436 245.274 171.424 244.488 171.412 243.696C171.4 242.904 171.382 242.1 171.358 241.284C171.346 240.456 171.154 239.868 170.782 239.52C170.422 239.172 169.828 238.998 169 238.998C168.184 238.998 167.596 239.172 167.236 239.52C166.876 239.868 166.684 240.456 166.66 241.284C166.624 242.772 166.594 244.242 166.57 245.694C166.546 247.134 166.528 248.586 166.516 250.05C166.516 251.502 166.522 252.972 166.534 254.46ZM181.919 266.268C180.791 266.268 179.885 266.106 179.201 265.782C178.529 265.458 178.031 264.948 177.707 264.252C177.395 263.556 177.227 262.644 177.203 261.516C177.167 259.872 177.137 258.228 177.113 256.584C177.101 254.94 177.095 253.296 177.095 251.652C177.095 250.008 177.101 248.364 177.113 246.72C177.137 245.076 177.167 243.438 177.203 241.806C177.227 240.642 177.401 239.706 177.725 238.998C178.049 238.29 178.547 237.774 179.219 237.45C179.903 237.126 180.791 236.964 181.883 236.964C183.467 236.964 184.619 237.33 185.339 238.062C186.071 238.794 186.473 240.006 186.545 241.698C186.581 242.622 186.599 243.54 186.599 244.452C186.599 245.352 186.581 246.27 186.545 247.206H184.169C184.205 246.234 184.223 245.256 184.223 244.272C184.223 243.276 184.205 242.298 184.169 241.338C184.133 240.522 183.929 239.928 183.557 239.556C183.197 239.184 182.639 238.998 181.883 238.998C181.103 238.998 180.527 239.184 180.155 239.556C179.795 239.928 179.603 240.522 179.579 241.338C179.543 243.066 179.513 244.788 179.489 246.504C179.477 248.208 179.471 249.912 179.471 251.616C179.471 253.308 179.477 255.006 179.489 256.71C179.513 258.414 179.543 260.136 179.579 261.876C179.603 262.692 179.795 263.286 180.155 263.658C180.527 264.03 181.115 264.216 181.919 264.216C182.711 264.216 183.305 264.03 183.701 263.658C184.109 263.286 184.325 262.692 184.349 261.876C184.361 261.228 184.367 260.58 184.367 259.932C184.379 259.272 184.379 258.618 184.367 257.97C184.367 257.31 184.361 256.662 184.349 256.026H181.955V253.884H186.689C186.713 254.808 186.719 255.894 186.707 257.142C186.707 258.378 186.695 259.836 186.671 261.516C186.611 263.208 186.209 264.426 185.465 265.17C184.733 265.902 183.551 266.268 181.919 266.268ZM189.916 266.016V237.216H198.034V239.376H192.292V250.446H197.674V252.588H192.292V263.856H198.034V266.016H189.916ZM200.779 266.016V237.216H203.155V263.856H208.915V266.016H200.779ZM215.487 266.268C213.831 266.268 212.637 265.902 211.905 265.17C211.185 264.426 210.789 263.208 210.717 261.516C210.705 260.772 210.699 260.094 210.699 259.482C210.699 258.87 210.705 258.258 210.717 257.646C210.729 257.022 210.747 256.338 210.771 255.594H213.057C213.009 256.662 212.985 257.724 212.985 258.78C212.985 259.836 213.009 260.868 213.057 261.876C213.093 262.692 213.297 263.286 213.669 263.658C214.041 264.03 214.641 264.216 215.469 264.216C216.261 264.216 216.831 264.03 217.179 263.658C217.527 263.286 217.725 262.692 217.773 261.876C217.809 261.204 217.833 260.604 217.845 260.076C217.857 259.536 217.857 258.99 217.845 258.438C217.833 257.874 217.809 257.214 217.773 256.458C217.749 255.57 217.623 254.826 217.395 254.226C217.179 253.614 216.723 253.218 216.027 253.038L214.155 252.552C213.231 252.324 212.523 251.982 212.031 251.526C211.539 251.058 211.197 250.446 211.005 249.69C210.825 248.934 210.717 248.004 210.681 246.9C210.669 246.12 210.663 245.268 210.663 244.344C210.675 243.42 210.687 242.526 210.699 241.662C210.735 240.546 210.909 239.646 211.221 238.962C211.533 238.266 212.031 237.762 212.715 237.45C213.411 237.126 214.329 236.964 215.469 236.964C217.053 236.964 218.199 237.33 218.907 238.062C219.615 238.794 219.999 240.006 220.059 241.698C220.083 242.358 220.089 243.174 220.077 244.146C220.077 245.106 220.059 246.126 220.023 247.206H217.719C217.755 246.222 217.773 245.244 217.773 244.272C217.785 243.288 217.773 242.31 217.737 241.338C217.713 240.522 217.515 239.928 217.143 239.556C216.783 239.184 216.213 238.998 215.433 238.998C214.617 238.998 214.035 239.184 213.687 239.556C213.339 239.928 213.141 240.522 213.093 241.338C213.045 242.25 213.021 243.174 213.021 244.11C213.033 245.034 213.057 245.964 213.093 246.9C213.117 247.968 213.243 248.772 213.471 249.312C213.699 249.852 214.173 250.206 214.893 250.374L216.657 250.806C217.605 251.022 218.325 251.37 218.817 251.85C219.321 252.33 219.669 252.954 219.861 253.722C220.053 254.478 220.161 255.39 220.185 256.458C220.209 257.202 220.221 257.832 220.221 258.348C220.221 258.852 220.215 259.344 220.203 259.824C220.203 260.304 220.191 260.868 220.167 261.516C220.107 263.208 219.717 264.426 218.997 265.17C218.277 265.902 217.107 266.268 215.487 266.268ZM223.49 266.016V237.216H231.608V239.376H225.866V250.446H231.248V252.588H225.866V263.856H231.608V266.016H223.49Z" fill="white"/>
</g>
</svg>
