<svg width="40" height="40" viewBox="0 0 40 40" fill="none" xmlns="http://www.w3.org/2000/svg">
<mask id="mask0_1_254" style="mask-type:alpha" maskUnits="userSpaceOnUse" x="0" y="0" width="40" height="40">
<rect width="40" height="40" fill="#D9D9D9"/>
</mask>
<g mask="url(#mask0_1_254)">
<path d="M6.66659 33.3334C5.74992 33.3334 4.9652 33.007 4.31242 32.3542C3.65964 31.7015 3.33325 30.9167 3.33325 30.0001V10.0001C3.33325 9.08341 3.65964 8.29869 4.31242 7.64591C4.9652 6.99314 5.74992 6.66675 6.66659 6.66675H33.3333C34.2499 6.66675 35.0346 6.99314 35.6874 7.64591C36.3402 8.29869 36.6666 9.08341 36.6666 10.0001V30.0001C36.6666 30.9167 36.3402 31.7015 35.6874 32.3542C35.0346 33.007 34.2499 33.3334 33.3333 33.3334H6.66659ZM19.9999 21.6667L6.66659 13.3334V30.0001H33.3333V13.3334L19.9999 21.6667ZM19.9999 18.3334L33.3333 10.0001H6.66659L19.9999 18.3334ZM6.66659 13.3334V10.0001V30.0001V13.3334Z" fill="#4B330F"/>
</g>
</svg>
